<?xml version="1.0" encoding="UTF-8"?>
<svg id="Calque_1" data-name="Calque 1" xmlns="http://www.w3.org/2000/svg" xmlns:xlink="http://www.w3.org/1999/xlink" viewBox="0 0 267.16 381.01">
  <defs>
    <style>
      .cls-1 {
        fill: url(#Dégradé_sans_nom_22-2);
      }

      .cls-1, .cls-2, .cls-3, .cls-4, .cls-5, .cls-6, .cls-7 {
        stroke: #1d1d1b;
        stroke-linejoin: round;
      }

      .cls-1, .cls-2, .cls-4, .cls-6, .cls-7 {
        stroke-width: 1.5px;
      }

      .cls-2 {
        fill: url(#Dégradé_sans_nom_15);
      }

      .cls-8 {
        fill: #1d1d1b;
      }

      .cls-3 {
        stroke-linecap: round;
        stroke-width: .75px;
      }

      .cls-3, .cls-5 {
        fill: none;
      }

      .cls-4 {
        fill: url(#Dégradé_sans_nom_22);
      }

      .cls-6 {
        fill: url(#Dégradé_sans_nom_15-2);
      }

      .cls-7 {
        fill: url(#Dégradé_sans_nom_12);
      }
    </style>
    <linearGradient id="Dégradé_sans_nom_12" data-name="Dégradé sans nom 12" x1="118.12" y1="196.13" x2="117.04" y2="243.3" gradientUnits="userSpaceOnUse">
      <stop offset=".6" stop-color="#efb13e"/>
      <stop offset=".99" stop-color="#ef793f"/>
    </linearGradient>
    <linearGradient id="Dégradé_sans_nom_22" data-name="Dégradé sans nom 22" x1="114.79" y1="255.66" x2="119.88" y2="255.66" gradientTransform="translate(-73.88 16.03) rotate(-8.12) scale(1.32 1)" gradientUnits="userSpaceOnUse">
      <stop offset="0" stop-color="#ef7941"/>
      <stop offset=".85" stop-color="#ef793f"/>
    </linearGradient>
    <linearGradient id="Dégradé_sans_nom_15" data-name="Dégradé sans nom 15" x1="111.05" y1="235.68" x2="115.09" y2="243.91" gradientUnits="userSpaceOnUse">
      <stop offset="0" stop-color="#efb13e"/>
      <stop offset=".85" stop-color="#ef793f"/>
    </linearGradient>
    <linearGradient id="Dégradé_sans_nom_15-2" data-name="Dégradé sans nom 15" x1="111.76" y1="238.95" x2="119.99" y2="238.95" xlink:href="#Dégradé_sans_nom_15"/>
    <linearGradient id="Dégradé_sans_nom_22-2" data-name="Dégradé sans nom 22" x1="-106.61" y1="266.02" x2="-102" y2="266.02" gradientTransform="translate(-90.29 30.05) rotate(159.92) scale(1.19 -1.03)" xlink:href="#Dégradé_sans_nom_22"/>
  </defs>
  <path class="cls-7" d="M136.93,251.37c-12.22,12.52-24.88,13.59-38.16-2.01-.21-.25-.42-.52-.59-.79-6.68-10.3-5.15-21.03-.59-31.9.54-1.28,1.17-2.53,1.89-3.72,11.79-19.41,23.79-24.21,18.11-45.73-.83-3.15-2.79-5.95-5.6-7.59-11.73-6.82-2.26-18.8.73-21.61,3.75-3.53,7.06-5.42,10.02-6.69-4.16,4.94-8.59,9.36-10.83,13.45-1.74,3.17-1.82,7.01.76,9.54,1.07,1.04,2.44,1.94,4.14,2.68,9.98,3.28,13.8,9.64,13.42,32.07-.03,1.96.6,3.88,1.79,5.43,5.88,7.68,5.27,12.35-1.88,21.38-1.31,1.66-1.36,3.99-.09,5.68,9.09,12.2,14.04,19.02,7.93,28.51-.3.46-.65.89-1.03,1.29Z"/>
  <path class="cls-8" d="M117.02,260.27l.51-1c-.42-1.24-.25-3.44-1.33-4.18-5.05-3.49-8.27-8.58-9.8-16.34-.09-.45-.15-.92-.2-1.38-.33-3.12-.68-5.7.45-8.89.19-.54.44-1.06.71-1.57,1.84-3.45,3.95-5.96,6.52-6.91-.61,1.5-.97,2.88-1.04,4.14-.11,1.96.81,3.81,2.31,5.08,11.01,9.29,12.92,17.53,6.28,26.76-.07.1,0,2.85-.05,2.96l1.38,1.22-5.74.12Z"/>
  <line class="cls-3" x1="109.4" y1="244.45" x2="117.17" y2="255.35"/>
  <path class="cls-4" d="M119.69,251.94c-3.63.85-8.09-5.44-7.91-9.44,3.51,3.46,8.71,8.13,7.91,9.44Z"/>
  <path class="cls-2" d="M110.35,228.26c-3.81,6.99-.6,14.44,7.58,19.25-.78-3.52-6.29-11.71-7.58-19.25Z"/>
  <path class="cls-6" d="M111.76,230.4c1.48,7.32,3.61,10.14,7.3,17.12.74-1.54,1.34-3.24.59-6.52-.27-1.17-.85-2.28-1.72-3.2-2.14-2.26-4.15-4.83-6.17-7.4Z"/>
  <path class="cls-1" d="M119.35,250.47c3.25-.83,4.11-3.97,2.65-8.69-1.44-4.65-3.06,7.68-2.65,8.69Z"/>
  <line class="cls-3" x1="124.41" y1="246.81" x2="119.99" y2="255.35"/>
  <path class="cls-5" d="M134.28,249.97c-10.58,12.2-21.54,13.25-33.04-1.96-.18-.24-.36-.51-.51-.77-5.78-10.04-4.46-20.49-.51-31.09.47-1.25,1.01-2.46,1.64-3.62,10.2-18.91,20.6-23.59,15.68-44.57-.72-3.07-2.41-5.8-4.85-7.39-10.16-6.64-1.96-18.32.64-21.06,3.25-3.44,4.3-5.29,6.86-6.52-3.6,4.81-7.09,8.9-9.03,12.89-1.5,3.09-.11,7.05,2.13,9.52.92,1.02,2.11,1.89,3.58,2.61,8.64,3.2,11.95,9.4,11.61,31.25-.03,1.91.52,3.78,1.55,5.3,5.09,7.49,4.56,12.03-1.63,20.83-1.13,1.61-1.17,3.89-.08,5.54,7.87,11.89,12.16,18.53,6.86,27.79-.26.45-.56.87-.9,1.25Z"/>
  <path class="cls-5" d="M119.63,192.75c2.16,5.43,2.33,11.9.48,19.42-.78,3.17-.74,6.51.11,9.66s2.17,5.9,4.14,8.22c1.1,1.3,2.18,2.64,3.12,4.06,4.63,7.03,6.78,11.51,3.31,17.5-.19.33-.43.65-.68.94-7.78,8.82-15.84,9.57-24.29-1.42-.14-.18-.28-.38-.39-.58-4.25-7.27-5.78-17.83-2.87-25.5.15-.39.74-2.26,1.87-4.08s2.03-3.09,2.97-4.4c1.7-2.36,3.67-4.5,5.72-6.56,4.43-4.45,6.49-10.27,6.52-17.25Z"/>
</svg>