<?xml version="1.0" encoding="UTF-8"?>
<svg id="Calque_1" data-name="Calque 1" xmlns="http://www.w3.org/2000/svg" xmlns:xlink="http://www.w3.org/1999/xlink" viewBox="0 0 851.3 1670.05">
  <defs>
    <style>
      .cls-1 {
        stroke-width: .25px;
      }

      .cls-1, .cls-2, .cls-3, .cls-4, .cls-5, .cls-6, .cls-7, .cls-8, .cls-9, .cls-10, .cls-11, .cls-12, .cls-13, .cls-14, .cls-15, .cls-16, .cls-17, .cls-18, .cls-19 {
        stroke: #000;
      }

      .cls-1, .cls-3, .cls-4, .cls-5, .cls-6, .cls-8, .cls-9, .cls-11, .cls-13, .cls-14, .cls-15 {
        stroke-miterlimit: 10;
      }

      .cls-2 {
        stroke-width: .07px;
      }

      .cls-2, .cls-10, .cls-16, .cls-17, .cls-18, .cls-19 {
        stroke-linejoin: round;
      }

      .cls-3, .cls-4, .cls-10, .cls-16 {
        stroke-width: .5px;
      }

      .cls-3, .cls-7, .cls-10, .cls-12 {
        stroke-linecap: round;
      }

      .cls-20 {
        clip-path: url(#clippath-1);
      }

      .cls-21 {
        clip-path: url(#clippath-4);
      }

      .cls-22 {
        clip-path: url(#clippath-2);
      }

      .cls-5, .cls-12 {
        stroke-width: .75px;
      }

      .cls-6, .cls-18, .cls-19 {
        stroke-width: 1.5px;
      }

      .cls-7, .cls-12 {
        stroke-linejoin: bevel;
      }

      .cls-8 {
        stroke-width: .03px;
      }

      .cls-9 {
        stroke-width: .05px;
      }

      .cls-11 {
        stroke-width: .07px;
      }

      .cls-13 {
        stroke-width: .1px;
      }

      .cls-14 {
        fill: none;
      }

      .cls-19 {
        stroke-linecap: square;
      }

      .cls-23 {
        clip-path: url(#clippath);
      }
    </style>
    <clipPath id="clippath">
      <path class="cls-15" d="M678.43-271.49"/>
    </clipPath>
    <clipPath id="clippath-1">
      <rect class="cls-15" x="-231.84" y="-271.49" width="910.27" height="1287.38"/>
    </clipPath>
    <clipPath id="clippath-2">
      <rect class="cls-15" x="-120.37" y="-271.49" width="687.33" height="1287.38"/>
    </clipPath>
    <clipPath id="clippath-4">
      <rect class="cls-15" x="-231.84" y="-271.49" width="910.27" height="1287.38"/>
    </clipPath>
  </defs>
  <g>
    <rect class="cls-13" x="450.74" y="518.72" width="4.37" height="4.08" rx="1.16" ry="1.16"/>
    <g>
      <path class="cls-15" d="M411.46,499.76c11.09-4.3,28.34,12.15,40.67.77,2.94,6.72,3.29,14.58,4.52,22.22l5.21,2.7-6.44.94.03.81,6.51,3.42-6.7,3.94c-3.97,30.47-23.15,64.69-47.26,100.13-15.51-18.46-27.7-35.64-38.24-50.36l-11.72.37,7.46-8.89c-10.1-24.03-13.82-44.6-6.44-73.8l52.39-2.26Z"/>
      <path class="cls-15" d="M513.18,820.97c8.67,27.95,18.47,87.64,23.08,116.54,3.4,4.52,7.19,7.6,11.45,8.96l15.33-.38c2.16-.05,4.61.98,7.18,2.43.91.51,1.95.8,2.99.75,4.94-.2,9.3-1.43,12.73-4.32l10.41,2.08,10.03-3.6c6.66,1.13,13.91-.42,21.31-2.68,3.52-1.07,6.22-3.92,7.03-7.51,1-4.42,1.41-9.3.88-12.14.08,5.38-5.62-2.33-14.44-1.47-2.74-10.39-16.79.39-27.7,9.24-1.6.98.99-8.43.75-9.43-3.03-9.08-9.78-5.54-21.7,7.9-9.08.57-15.16,1.91-21.95,4.35-5.42,4.69-9.91,5.49-14.29,5.8"/>
      <g>
        <path class="cls-6" d="M577.91,880.58l-.23,49.81-17.26,27.55c-1.06,1.69-1.91,3.5-2.55,5.38l-1.95,5.77c-.7,2.07-1.1,4.24-1.18,6.43l-1.7,46.47c.68,4.28,3.12,4.08,5.39,2.8,2.73-1.54,4.47-4.38,4.9-7.48l3.53-25.34c.26-1.9.95-3.71,2.01-5.3h0c.87-1.3,2.89-.65,2.84.91,2.02,11.69,2.61,22.98-.24,33.31-.47,1.69-1.13,3.32-1.97,4.85l-3.82,6.97c-1.16,2.11-2.51,4.1-4.04,5.95l-4.81,5.81c-2.84,3.57-3.19,6.05.5,6.78,6.5-1.53,15.96-10.01,25.63-19.02l9.26-33.73-9.26,33.73-15.82,13.84c-3.03,4.53.86,6.98,4.78,5.39,6.07-4.73,16.02-10.35,22.29-19.06l4.63-23.85c-2.41,9.98-3.95,24.45-8.09,29.13,1.93.5,4.69-.11,7.78-1.17l6.54-34.19-3.64,27.25h0c2.36-.9,1.19-.52,4.2-1.39l6.27-38.27.33-6.61-4.63-53.91.83-15.71,1.5-30.2c.96-21.89-23.22-10.78-32.03-2.9Z"/>
        <path class="cls-5" d="M554.46,1016.22l5.98-.34c-.58,3.25-1.5,6.67-4.55,7.5-2.4-.28-1.91-3.8-1.43-7.16Z"/>
        <path class="cls-15" d="M555.52,1049.22s4.48-2.5,9.26-1.56"/>
        <path class="cls-10" d="M555.05,1014.1c1.89-2.64,5.91-.09,5.91-.09"/>
        <path class="cls-3" d="M559.11,1045.24c1.64-.92,3.37-.84,5.16,0"/>
        <path class="cls-3" d="M587.46,1031.72c1.81.08,3.19.95,4.3,2.29"/>
        <path class="cls-3" d="M576.85,1027.42c2.56.23,4.13,1.43,4.87,3.44"/>
        <path class="cls-3" d="M595.59,1034.42c1.75.4,2.73,1,2.77,1.86"/>
        <path class="cls-5" d="M568.17,1050.82s3.96-3.26,8.83-3.19"/>
      </g>
      <path class="cls-6" d="M178.78,931.73l-2.7-5.51c-.53-1.09-1.88-1.48-2.91-.84l-9.06,5.59c-.92.57-1.6,1.46-1.9,2.5l-2.29,7.87c-.21.72.15,1.47.84,1.76l10.06,4.19c4.39,1.83,9.19,2.47,13.9,1.85l8.51-1.11c2.17-.28,4.37.22,6.21,1.42l2.51,1.64c.66.43,1.4.74,2.18.9l14.86,3.08,7.19-6.38,16.31,6.93,21.83,3.05c1.76.25,4.16-.33,6.91-1.39,2.34-6.76,2.44-12.32-.83-16.08-20.95-12.82-43.45-17.37-68.11-10.25-1.38.4-2.79.71-4.22.89l-1.99.25c-.86.11-1.72.15-2.59.12l-14.71-.48Z"/>
      <g>
        <path class="cls-6" d="M222.64,888.8l.23,49.81,17.26,27.55c1.06,1.69,1.91,3.5,2.55,5.38l1.95,5.77c.7,2.07,1.1,4.24,1.18,6.43l1.7,46.47c-.68,4.28-3.12,4.08-5.39,2.8-2.73-1.54-4.47-4.38-4.9-7.48l-3.53-25.34c-.26-1.9-.95-3.71-2.01-5.3h0c-.87-1.3-2.89-.65-2.84.91-2.02,11.69-2.61,22.98.24,33.31.47,1.69,1.13,3.32,1.97,4.85l3.82,6.97c1.16,2.11,2.51,4.1,4.04,5.95l4.81,5.81c2.84,3.57,3.19,6.05-.5,6.78-6.5-1.53-15.96-10.01-25.63-19.02l-9.26-33.73,9.26,33.73,15.82,13.84c3.03,4.53-.86,6.98-4.78,5.39-6.07-4.73-16.02-10.35-22.29-19.06l-4.63-23.85c2.41,9.98,3.95,24.45,8.09,29.13-1.93.5-4.69-.11-7.78-1.17l-6.54-34.19,3.64,27.25h0c-2.36-.9-1.19-.52-4.2-1.39l-6.27-38.27-.33-6.61,4.63-53.91-.83-15.71-1.5-30.2c-.96-21.89,23.22-10.78,32.03-2.9Z"/>
        <path class="cls-5" d="M246.08,1024.44l-5.98-.34c.58,3.25,1.5,6.67,4.55,7.5,2.4-.28,1.91-3.8,1.43-7.16Z"/>
        <path class="cls-15" d="M245.03,1057.44s-4.48-2.5-9.26-1.56"/>
        <path class="cls-10" d="M245.49,1022.32c-1.89-2.64-5.91-.09-5.91-.09"/>
        <path class="cls-3" d="M241.43,1053.46c-1.64-.92-3.37-.84-5.16,0"/>
        <path class="cls-3" d="M213.09,1039.94c-1.81.08-3.19.95-4.3,2.29"/>
        <path class="cls-3" d="M223.69,1035.64c-2.56.23-4.13,1.43-4.87,3.44"/>
        <path class="cls-3" d="M204.95,1042.64c-1.75.4-2.73,1-2.77,1.86"/>
        <path class="cls-5" d="M232.38,1059.03s-3.96-3.26-8.83-3.19"/>
      </g>
      <g>
        <path d="M427.36,1390.13c-5.28,0-9.73-4.13-11.94-7.67-1.91-3.06-3.59-4.49-5.29-4.49-1.83,0-3.38,1.59-4.9,5.02,0,.02-.02.03-.02.05-.79-.71-2.83-5.54-4.56-13.15l-.13-.58h-1.13s-.18.49-.18.49c-.26.7-.48,3.93-.89,10.62-.2,3.23-.43,7.07-.63,9-.63-.36-1.37-.54-2.21-.54-.68,0-1.37.11-2.04.22-.64.1-1.24.2-1.81.2-.72,0-1.28-.16-1.75-.51-1.12-.83-1.11-2.23-1.1-3.85,0-1.63.02-3.48-1.44-4.65-.88-.71-1.85-1.06-2.88-1.06-4.35,0-8.58,6.48-9.93,8.76-1.06-.85-2.13-1.82-3.24-2.84-3.49-3.18-7.09-6.47-11.22-6.47-1.92,0-3.82.74-5.65,2.2l-.28.23v.37c0,1.89-.17,2.27-.7,2.3-2.16-.55-4.15-1.3-6.08-2.02-3.34-1.26-6.51-2.45-10.28-2.55l-1.53-4.6h-.54c-9.16.08-29.05,6.65-31.88,7.6-3.05-4.05-4.86-9.27-7.35-16.43-.47-1.34-.96-2.75-1.48-4.22-.7-1.72-1.65-2.08-2.31-2.08-.56,0-1.13.25-1.7.74-1.24,1.07-2.13,2.42-3,3.74-.74,1.12-1.45,2.2-2.35,3.08-1.62-6.53-4.83-12.85-9.3-18.29l-.23-.27h-.95s-.14.58-.14.58c-1.01,4.91-2.7,9.62-5.03,14.03-.85-7.79-3.34-15.5-7.25-22.36l-.22-.38h-1.03s-.14.58-.14.58l-5.65,19.89c-3.7-1.66-6.23-5.36-6.38-9.46l-.03-.72h-.85s-.12.04-.12.04c-4.69,1.57-9.1,4-12.86,7.1,1.02-22.22,1.9-44.67,2.74-66.4,4.43-114.1,8.62-221.88,34.03-336.22,2.2-8.81-.13-15.1-6.57-17.67-13.99-7-27.3-10.41-40.61-10.41-8.44,0-17.03,1.43-25.52,4.25-2.57,0-4.42.12-5.42.61-1.11-.32-2.23-.48-3.39-.48-3.05,0-5.96,1.11-8.66,2.31-.29.13-.6.2-.92.2-1.12,0-2.06-.79-2.24-1.87-.47-2.77-2.43-8.17-4.34-8.17-.11,0-.21.02-.31.05-2.66.8-4.59,2.66-6.46,4.46-1.15,1.11-2.34,2.26-3.68,3.12l-.23.15-.08.27s-.07.22-.28.43c0-.04-.01-.08-.01-.11l.02-.1c.6-2.95,1.5-5.43,2.45-8.05.8-2.22,1.64-4.52,2.3-7.18,6.08-30.4,13.73-59.3,21.13-87.25,9.65-36.46,18.77-70.9,24.75-108.48,1.53-10.21,2.74-20.58,3.91-30.6,2.33-20.02,4.75-40.72,9.83-61.05,2.89-13.02,6-25.72,12.17-38.06,11.36-19.47,24.01-32.59,40.98-42.49,6.93-3.65,14.1-7.19,21.04-10.63,21.52-10.65,43.75-21.65,63.64-37.94-.21,1.01-.41,2.02-.59,3.02-4.07,22.45-1.73,46.56,6.61,67.91-.23.79-2.48,3.59-3.84,5.27-3.12,3.87-3.64,4.62-3.21,5.35.28.48.88.52,1.46.52.88,0,2.32-.15,3.84-.31,1.76-.19,3.75-.4,5.13-.4.87,0,1.21.08,1.33.13,5.11,10.13,11.65,19.61,17.98,28.78,4.92,7.13,10.01,14.51,14.38,22.12l.67,1.16.64-1.18c2.35-4.31,4.8-8.65,7.4-13.24,8.71-15.41,17.71-31.35,24.36-48.75,4.15-10.88,8.55-24.03,9.74-39.23l2.48-.74h0c.44-.13,1.71-.43,2.85-.69l1.88-.43-1.68-.95c-.16-.09-3.65-2.07-5.55-3.01,0-.16.02-.32.03-.48.02-.36.04-.73.06-1.09l6.99-1.06-1.23-1.06c-.15-.13-3.45-2.98-5.76-4.64-.06-5.69-.53-8.41-1.61-14.8l-.13-.76c8.16,7.76,31.73,28.59,40.91,31.24,40.36,16.74,64.91,38.31,74.95,65.94,10.48,27.5,15.28,54.72,20.37,83.52.83,4.7,1.66,9.43,2.53,14.19,3.34,18.39,6.11,36.62,8.8,54.25,4.63,30.48,9.42,61.99,17.2,94.07,1.08,4.33,2.1,8.73,3.08,12.98,3.28,14.24,6.38,27.69,12.22,40.58,1.49,7.43,3.03,13.65,6.07,21.61.11,5.15-2.66,5.78-6.48,6.65-2.04.46-4.35.99-6.24,2.4-.18-.42-.35-.82-.52-1.22-1.58-3.74-2.95-6.98-7.98-6.98-.59,0-1.24.05-1.93.14-12.5,1.67-15.44,4.94-16.86,6.51-.18.2-.41.46-.5.5l-.29-.03-.17.17c-.25.19-.49.28-.75.28-1.92,0-4.49-4.52-5.88-6.95-.78-1.36-1.2-2.09-1.56-2.45-.92-.91-1.91-1.37-2.94-1.37-2.37,0-4.4,2.41-6.36,4.73-1.69,2-3.43,4.06-4.98,4.06h-.15c-2.41.5-4.86.83-7.22,1.15-5.19.71-10.09,1.38-14.37,3.51l-.08.04-.08.07c-3.63,3.63-7.2,4.27-10.65,4.89-.78.14-1.54.28-2.29.45l-.7.16.12.7c.1.59,10.16,60.54,11.74,93.76,4.08,71.34,6.84,143.86,9.51,214,1.34,35.07,2.72,71.34,4.25,107.01,0,4.24-1.38,4.24-1.96,4.24-.97,0-2.25-.51-3.62-1.05-1.46-.58-2.96-1.18-4.42-1.3l-.19-.02-.18.08c-2.1.94-2.41,3.58-2.68,5.9-.06.54-.13,1.08-.21,1.59-1.88-4.98-5.28-13.77-9.96-13.77-1.3,0-2.57.68-3.76,2.03-2.63,2.97-2.68,7.27-2.73,11.42-.02,2.2-.05,4.29-.44,6.13l-2.75-3.92-.34,13.95c-4.07-3.61-7.26-8.16-9.26-13.23l-.19-.48h-.87s-.23.27-.23.27c-2.49,3.22-4.35,6.81-5.55,10.68-.13.42-.5.56-.78.56-.14,0-.41-.04-.63-.29-.48-.56-1.12-.86-1.81-.86-.91,0-1.71.51-2.09,1.33-.88,1.89-1.73,3.84-2.54,5.81-2.92-2.23-3.24-2.42-3.64-2.67-.13-.08-.27-.16-.54-.35-2.38-1.64-3.17-3.17-4.01-4.78-.75-1.44-1.52-2.93-3.38-4.44-1.14-.92-2.29-1.39-3.41-1.39-3.35,0-5.52,4-7.27,7.22l-.32.59c-.5.92-.71,1.46-.9,1.99-.25.67-.49,1.31-1.37,2.78-.28-.29-.66-.75-.94-1.1-1.03-1.27-1.7-2.05-2.49-2.05-.32,0-.61.14-.83.38-.45.52-.65,1.58-.2,4.96-2.28,1-5.09,2.95-7.73,5.38l-.97-.86c-5.21-4.63-6.01-5.34-9.96-5.79-.9-.1-1.55-.23-2.12-.34-.62-.12-1.16-.23-1.74-.23-1.08,0-2.25.36-4.52,1.45-.33-2.15-1.27-5.75-2.05-8.75-.35-1.36-.66-2.53-.82-3.25-.16-.72-.56-.87-.86-.87h-.37l-.27.32c-.75.95-1.13,12.33-1.06,17.5-1.03-1.83-2.86-5.7-6.06-13.64l-.3-.74h-1.26s0,.75,0,.75c0,1.06.07,2.19.15,3.4.35,5.19.71,10.56-4.78,12.54-1.13.41-2.29.62-3.46.62Z"/>
        <path d="M363.89,502.3c-.06.33-.13.67-.19,1-4.08,22.48-1.76,46.62,6.53,68.02-.5.96-2.42,3.35-3.61,4.82-3.15,3.91-4,4.97-3.28,6.2.52.89,1.6.89,2.11.89.92,0,2.31-.15,3.92-.32,1.74-.18,3.71-.39,5.05-.39.4,0,.66.02.83.04,5.11,10.05,11.6,19.45,17.87,28.54,4.91,7.12,9.99,14.48,14.34,22.07l1.33,2.33,1.28-2.35c2.35-4.31,4.8-8.65,7.39-13.24,8.72-15.44,17.74-31.4,24.4-48.85,4.13-10.81,8.49-23.85,9.74-38.92l1.79-.53.37-.11c.53-.14,1.67-.41,2.64-.63l3.76-.86-3.36-1.91c-.15-.08-3.17-1.8-5.15-2.81,0-.16.02-.31.03-.47l4.78-.72,3.22-.49-2.46-2.13c-.14-.12-3.2-2.76-5.5-4.46-.08-5.06-.5-7.94-1.37-13.1,9.32,8.67,30.71,27.25,39.51,29.87,40.19,16.67,64.58,38.1,74.55,65.52,10.45,27.43,15.25,54.61,20.33,83.38.82,4.63,1.66,9.43,2.53,14.19,3.34,18.38,6.11,36.6,8.79,54.23,4.64,30.49,9.43,62.02,17.22,94.15,1.08,4.32,2.09,8.71,3.07,12.96,3.14,13.62,6.38,27.71,12.23,40.64,1.48,7.39,3.02,13.61,6.05,21.52.05,4.42-2.2,4.94-5.9,5.77-1.85.42-3.91.88-5.74,2-.06-.13-.11-.26-.16-.39-1.62-3.82-3.15-7.43-8.67-7.43-.63,0-1.31.05-2.03.14-12.77,1.71-15.84,5.12-17.31,6.75-.06.07-.13.14-.19.21l-.2-.02-.47.36c-.16.13-.25.13-.29.13-1.48,0-4.2-4.77-5.23-6.57-.83-1.46-1.25-2.18-1.69-2.61-1.07-1.05-2.23-1.58-3.46-1.58-2.71,0-4.86,2.54-6.94,5-1.43,1.69-3.21,3.8-4.41,3.8h-.15l-.15.03c-2.39.48-4.82.81-7.17,1.13-5.25.72-10.22,1.39-14.6,3.58l-.12.06-.1.07-.1.07-.08.08c-3.43,3.42-6.88,4.05-10.22,4.65-.76.14-1.55.28-2.32.45l-1.39.31.24,1.4c.1.59,10.15,60.49,11.73,93.69,4.08,71.32,6.84,143.85,9.51,213.98,1.34,35.06,2.72,71.32,4.24,106.98,0,3.49-.85,3.49-1.21,3.49-.82,0-2.1-.51-3.34-1-1.51-.6-3.07-1.22-4.64-1.35l-.38-.03-.35.16c-2.05.91-2.65,3.09-2.95,5.18-2.43-6.01-5.41-11.51-9.59-11.51-1.53,0-2.98.77-4.32,2.28-2.81,3.18-2.87,7.62-2.91,11.91-.02,1.45-.03,2.87-.15,4.17l-.37-.52-2.62-3.72-.11,4.55-.24,10c-3.41-3.34-6.1-7.38-7.87-11.86l-.4-.91h-1.73s-.45.59-.45.59c-2.53,3.27-4.43,6.94-5.66,10.9,0,.01-.01.04-.06.04-.03,0-.04-.01-.09-.06-.59-.69-1.44-1.09-2.35-1.09-1.2,0-2.26.67-2.77,1.76-.75,1.62-1.48,3.27-2.18,4.94-2.25-1.71-2.56-1.89-2.94-2.12-.12-.07-.25-.15-.5-.32-2.23-1.53-2.94-2.91-3.77-4.51-.75-1.44-1.59-3.07-3.58-4.67-1.28-1.03-2.58-1.56-3.88-1.56-3.79,0-6.08,4.22-7.92,7.61l-.32.59c-.53.96-.75,1.56-.95,2.08-.18.48-.35.95-.8,1.76-.08-.1-.16-.2-.23-.28-1.01-1.25-1.88-2.32-3.08-2.32-.54,0-1.04.23-1.4.64-.58.67-.84,1.74-.45,4.99-2.71,1.3-5.39,3.47-6.92,4.82l-.47-.41c-5.24-4.67-6.19-5.51-10.38-5.98-.87-.1-1.5-.22-2.06-.33-.66-.13-1.23-.24-1.89-.24-1.06,0-2.11.28-3.95,1.11-.38-1.99-1.09-4.77-1.89-7.84-.35-1.36-.66-2.53-.81-3.23-.31-1.35-1.3-1.45-1.6-1.45-.48,0-.92.22-1.23.6-.32.4-.75.96-1.12,10.1-.04.91-.1,2.74-.14,4.64-1.05-2.22-2.52-5.59-4.58-10.7l-.09-.23-.37-.97h-2.54s0,1.5,0,1.5c0,1.09.07,2.24.15,3.45.4,6.04.32,10.12-4.28,11.79-1.05.38-2.12.57-3.21.57-4.97,0-9.19-3.94-11.3-7.32-1.3-2.08-3.32-4.84-5.93-4.84-2.36,0-3.93,2.15-5.01,4.25-.96-1.88-2.45-6.05-3.75-11.77l-.29-1.14h-2.22s-.36.99-.36.99c-.28.76-.46,3.24-.93,10.82-.16,2.61-.36,5.86-.53,7.96-.48-.14-1-.2-1.56-.2-.74,0-1.46.11-2.15.23-.61.1-1.18.19-1.7.19-.56,0-.96-.11-1.3-.36-.77-.58-.81-1.61-.8-3.24.01-1.71.02-3.84-1.72-5.24-1.01-.81-2.14-1.23-3.35-1.23-2.46,0-5.08,1.72-7.81,5.13-.02.03-1.32,1.72-2.3,3.26-.83-.7-1.68-1.47-2.55-2.27-3.59-3.28-7.31-6.66-11.73-6.66-2.1,0-4.16.79-6.13,2.37l-.56.46v.71c0,.44,0,1.13-.08,1.49-2-.53-3.87-1.23-5.69-1.92-3.25-1.22-6.33-2.38-9.99-2.58l-1.18-3.55-.29-1.08h-1.16c-8.82.09-27.38,6.09-31.58,7.48-2.79-3.9-4.54-8.95-6.92-15.79-.47-1.34-.96-2.75-1.48-4.22v-.03s-.02-.03-.02-.03c-.85-2.08-2.1-2.51-3-2.51-.74,0-1.48.31-2.19.92-1.32,1.14-2.24,2.54-3.14,3.89-.45.68-.89,1.34-1.36,1.94-1.76-6.17-4.85-12.06-9.05-17.18l-.42-.59h-2.06s-.19,1.24-.19,1.24c-.83,4.02-2.12,7.9-3.86,11.6-1.09-7.07-3.47-13.96-7.01-20.17l-.4-.79h-2.06s-.31,1.09-.31,1.09l-5.41,19.05c-3.01-1.68-5.02-4.88-5.16-8.39v-.62s-.47-.44-.47-.44l-.47-.44-.64.03h-.2s-.19.08-.19.08c-4.24,1.42-8.27,3.54-11.8,6.2.99-21.71,1.84-43.57,2.67-64.76,4.43-114.07,8.62-221.82,34-336.06,2.3-9.22-.17-15.8-6.95-18.55-14.14-7.06-27.53-10.49-40.95-10.49-8.48,0-17.11,1.43-25.64,4.25-2.45,0-4.21.12-5.35.57-1.09-.29-2.19-.44-3.33-.44-3.19,0-6.19,1.14-8.97,2.38-.2.09-.4.13-.61.13-.64,0-1.36-.43-1.5-1.25-.4-2.35-2.34-8.8-5.08-8.8-.18,0-.36.03-.53.08-2.84.85-4.83,2.78-6.77,4.64-.83.8-1.63,1.57-2.48,2.25.54-1.99,1.2-3.83,1.89-5.74.81-2.24,1.65-4.55,2.32-7.25v-.03s.02-.04.02-.04c6.07-30.35,13.71-59.23,21.11-87.16,9.66-36.48,18.78-70.94,24.76-108.57,1.53-10.22,2.74-20.59,3.91-30.62,2.33-19.99,4.74-40.67,9.83-60.99,2.98-13.4,5.94-25.48,12.03-37.72l.05-.11c11.3-19.36,23.85-32.38,40.68-42.2,6.94-3.65,14.1-7.19,21.02-10.62,20.98-10.38,42.63-21.09,62.17-36.73M366.23,498.45s0,0,0,0c-26.63,22.37-57.2,34.6-86.25,49.88-18.34,10.7-30.57,24.46-41.27,42.8,0,0,0,0,0,0-6.11,12.23-9.17,24.46-12.23,38.22-7.64,30.57-9.17,61.15-13.76,91.72-10.7,67.26-32.1,126.88-45.86,195.67-1.43,5.71-3.62,9.7-4.76,15.26-.13.28.12.92.11,1.46,1.08-.2,1.51-.96,1.62-1.33,3.56-2.3,5.85-6.27,9.94-7.49.03,0,.07-.01.1-.01,1.01,0,3,4.01,3.6,7.55.25,1.5,1.57,2.5,2.98,2.5.41,0,.82-.08,1.23-.26,2.96-1.32,5.64-2.25,8.36-2.25,1.15,0,2.31.17,3.49.54.85-.68,3.91-.68,5.43-.68,8.65-2.88,17.09-4.25,25.4-4.25,13.69,0,27.01,3.7,40.34,10.36,7.64,3.06,7.64,10.7,6.11,16.81-30.57,137.57-30.57,269.03-36.87,404.48,0,0,0,0,0,0,0,0,0,0,0,0,4.02-3.62,8.79-6.37,13.92-8.08,0,0,0,0,0,0,0,0,0,0,0,0,.17,4.65,3.24,8.87,7.62,10.44,0,0,0,0,0,0,0,0,0,0,0,0l5.89-20.72s0,0,0,0c0,0,0,0,0,0,4.26,7.46,6.8,15.89,7.38,24.47,0,0,0,0,0,0,0,0,0,0,0,0,2.97-5.05,5.11-10.6,6.29-16.34,0,0,0,0,0,0,0,0,0,0,0,0,4.56,5.54,7.88,12.14,9.43,19.16,0,0,0,0,0,0,0,0,0,0,0,0,2.71-1.95,3.79-5.44,6.28-7.6.45-.39.85-.56,1.21-.56.69,0,1.22.64,1.61,1.58,3.36,9.48,5.31,16.2,9.17,21.16.1.03.2.04.3.06,0,0,22.3-7.58,31.95-7.67,0,0,0,0,0,0l1.53,4.59s0,0,0,0c6.11,0,10.7,3.06,16.81,4.59,1.53,0,1.53-1.53,1.53-3.05,0,0,0,0,0,0,1.8-1.44,3.52-2.03,5.18-2.03,5.35,0,10.02,6.18,14.69,9.68,0,0,4.94-9.13,9.71-9.13.82,0,1.63.27,2.41.9,2.43,1.95-.2,6.46,2.56,8.52.68.51,1.42.66,2.2.66,1.26,0,2.6-.41,3.85-.41,1,0,1.94.26,2.75,1.22.49-1.29,1.19-19.43,1.68-20.79,0,0,0,0,0,0,0,0,0,0,0,0,1.55,6.79,3.96,13.8,5.4,13.8.23,0,.43-.18.61-.57,1.38-3.11,2.76-4.57,4.21-4.57s2.98,1.45,4.66,4.14c2.68,4.29,7.38,8.03,12.57,8.03,1.22,0,2.47-.21,3.72-.66,7.39-2.68,5.09-11.1,5.12-16.65,0,0,0,0,0,0,0,0,0,0,0,0,1.39,3.46,6.15,15.35,7.72,15.89,0,0,0,0,0,0,0,0,0,0,0,0-.47-1.92.22-19.32.84-19.32.05,0,.09.09.13.28.57,2.52,2.88,10.6,2.97,12.97,2.88-1.43,4.09-1.84,5.15-1.84.98,0,1.83.35,3.78.57,4.04.45,4.41,1.06,11.02,6.91,0,0,0,0,0,0,0,0,0,0,0,0,2.44-2.31,5.77-4.85,8.53-5.91,0,0,.01-.01.01-.02-.56-3.84-.34-5.05.21-5.05.92,0,2.79,3.36,3.58,3.36.09,0,.17-.04.23-.14,1.93-3.13,1.4-3.11,2.56-5.23,1.69-3.09,3.84-7.42,6.93-7.42.9,0,1.87.36,2.94,1.22,3.78,3.05,2.74,6.02,7.44,9.25,1.13.78.06-.14,4.92,3.58,0,0,0,0,0,0,0,0,0,0,0,0,.91-2.25,1.87-4.48,2.89-6.68.27-.58.83-.89,1.41-.89.44,0,.88.18,1.21.56.01.01.02.03.04.04.32.37.76.55,1.2.55.65,0,1.28-.39,1.5-1.09,1.17-3.76,3.01-7.31,5.42-10.43,0,0,0,0,0,0,0,0,0,0,0,0,2.23,5.67,5.93,10.71,10.66,14.54,0,0,0,0,0,0,0,0,0,0,0,0l.32-13.23,2.35,3.34s0,0,0,0c0,0,0,0,0,0,2.03-5.5-.71-14.09,3.43-18.77,1.11-1.25,2.18-1.78,3.2-1.78,4.93,0,8.77,12.27,10.03,15.31,0,0,0,0,0,0,0,0,0,0,0,0,1.39-2.4.3-7.85,3.11-9.1,2.71.23,5.89,2.36,8.1,2.36,1.62,0,2.71-1.14,2.71-5.02-4.59-107-7.64-214.01-13.76-321.01-1.53-32.1-10.89-88.82-11.75-93.86,4.1-.92,8.69-.92,13.27-5.5,0,0,0,0,.01,0,6.11-3.05,13.75-3.05,21.4-4.58,3.83,0,7.35-8.79,11.34-8.79.78,0,1.59.34,2.41,1.15,1.1,1.08,4.71,9.61,7.97,9.61.41,0,.81-.13,1.21-.44.02,0,.04,0,.06,0,1.41,0,1.31-4.85,17.4-7.01.66-.09,1.27-.13,1.83-.13,5.08,0,5.97,3.55,7.88,7.9.1.24.33.36.56.36.14,0,.29-.05.41-.14,5.03-3.87,13.39-.76,13.11-9.86,0,0,0,0,0-.01-3.04-7.93-4.57-14.05-6.1-21.69,0,0,0,0,0,0-7.64-16.81-10.7-35.16-15.28-53.5-12.23-50.45-16.82-97.83-25.99-148.28-6.11-33.63-10.7-65.73-22.93-97.83-12.23-33.63-44.33-53.5-75.45-66.4-9.37-2.71-35.48-25.93-42.24-32.65,1.46,8.72,2.06,11.34,2.11,18.08,2.3,1.61,6.01,4.82,6.01,4.82l-6,.91c-.02.89-.09,1.78-.12,2.67,1.71.79,5.95,3.2,5.95,3.2,0,0-3.04.7-3.11.76l-2.78.83c-1.02,13.94-4.74,26.45-9.73,39.53-8.6,22.54-21.49,43.16-31.71,61.91-10.03-17.47-23.33-32.98-32.4-50.97-.16-.32-.9-.43-1.95-.43-2.62,0-7.12.71-8.97.71-.46,0-.75-.04-.82-.15-.43-.74,7.6-9.24,7.15-10.4-8.36-21.35-10.71-45.05-6.62-67.62.31-1.71.66-3.42,1.04-5.12,0,0,0,0,0,0h0Z"/>
      </g>
      <path class="cls-18" d="M410.35,630.86c-8.26,12.33-18.15,26.84-25.79,37.99-30.04-42.74-49.79-92.78-57.07-144.64"/>
      <path class="cls-15" d="M407.57,632.04c-9.21,11.87-17.8,24.22-25.72,36.98"/>
      <path class="cls-15" d="M411.52,646.62c32.59-33.21,49.81-74.95,46.93-115.53,14.3,11.24,28.92,22.66,47.84,30.78-9.63,13.58-14.04,28.86-20.02,43.6"/>
      <path class="cls-6" d="M444.72,836.21c24.04.19,48.12-4.63,70.23-14.07.04-20.18.09-40.36.13-60.55.02-8.96.04-17.95.9-26.87-7.53,5.19-17.18,5.87-26.32,6.19-35.93,1.26-71.92-.39-107.84,1.15-24.97,1.08-50.31,3.67-74.72-1.7-6.87-1.51-14.52-4.49-16.76-11.15,3.6,32.73,2.1,66.52-3.67,98.35,13.91,3.63,27.96,6.88,42.26,8.37,12.91,1.34,25.91,1.25,38.89,1.14,26.17-.2,52.34-1.07,76.9-.87Z"/>
      <g>
        <path class="cls-6" d="M390.41,785.93c.61,1.86-.76,3.83-2.4,4.89s-3.6,1.56-5.23,2.64c-2.34,1.55-3.76,4.13-5.02,6.64-12.7,25.3-17.56,53.68-22.27,81.59-3.79,22.46-7.58,44.91-11.06,66.64.6,3.58.2,7.34,1.44,10.75,1.25,3.4,5.15,6.32,8.4,4.71.9-.44,1.65-1.19,2.62-1.46,4.03-1.12,6.29,6.35,10.43,5.77,1.17-.16,2.3-.99,3.42-.63,1.37.45,1.6,2.24,1.82,3.67.87,5.66,5.86,10.41,11.56,11.01,1.08.11,2.3.04,3.07-.72.59-.58.8-1.44.97-2.26,9.64-45.36,1.85-92.36,1.77-138.73,0-5.33.14-10.91,2.68-15.6,1.61-2.97,4.06-5.38,6.48-7.74,1.51-1.47,3.01-2.94,4.99-5.51,2.92,1.44,6.7.92,9.12-1.26-4.23,23.46-3.29,47.85,2.74,70.91,2.53,9.66,5.96,19.35,5.39,29.32-.15,2.7-.6,5.41-.21,8.08s1.83,5.4,4.34,6.41c1.04.42,2.3.48,3.23-.16.53-.37.89-.93,1.3-1.44,3.63-4.51,11.45-5.23,13.16-10.76.56-1.82.44-4.09,1.98-5.2,1.77-1.27,4.15.05,6.24.68,2.89.88,5.99.33,8.96-.22,1.2-.22,2.45-.47,3.4-1.24,1.09-.89,1.57-2.32,1.79-3.71.94-6.03-2.14-11.85-4.23-17.59-2.52-6.89-3.68-14.18-5.17-21.36-4.07-19.65-10.65-38.77-19.53-56.77-3.44-6.98-8.11-14.48-15.71-16.16-2.4,3.14-2.36,7.43-2.91,11.35-.55,3.92-2.42,8.35-6.29,9.18"/>
        <path class="cls-6" d="M417.75,778.35c-5.62-.17-11.24.16-16.8.98-2.16.32-4.34.72-6.29,1.69s-3.68,2.58-4.33,4.66c-.87,2.78.28,5.75,1.42,8.43.45,1.06.95,2.19,1.91,2.83.96.64,2.52.52,2.99-.53.24-.53.15-1.14.05-1.71-.43-2.4-1.07-4.75-1.89-7.05,3.14,6.68,4.26,14.09,6.14,21.22.26.98.55,2.01,1.25,2.75.97,1.03,2.49,1.29,3.89,1.46,2.62.32,5.46.48,7.69-.91,3.15-1.96,3.89-6.15,4.32-9.84.74-6.35,1.48-12.7,2.23-19.05.13-1.14.25-2.37-.28-3.39s-2-1.63-2.3-1.54Z"/>
      </g>
      <line class="cls-6" x1="286.67" y1="827.57" x2="271.77" y2="944.54"/>
      <path class="cls-6" d="M293.39,1360.63l11.97-110.4,5.28.66,21.78,3.96s-7.24-16.04-13.86-11.88l-11.22-12.54,5.28-108.88,9.15-10.68c-7.7-7.37-10.32-19.84-9.21-36.03l14.36-5.15-14.63-7.04,3.25-43.62,14.9-8.4-10.84-3.25,3.25-7.32c-6.33-1.81-9.16-5.14-8.4-10.02l7.31-3.79c.11-3.2-2.74-5.62-6.58-7.78l11.42-142.72"/>
      <g>
        <path d="M502.73,1378.77l-3.09-2.3c-.9-.67-1.65-1.53-2.19-2.5-2.15-3.9-4.85-6.05-7.61-6.05-2.27,0-5.44,1.46-8.3,7.93l7.69-167.39,14.95,171.08-1.47-.76Z"/>
        <path d="M489.4,1215.97l14.22,162.7-.59-.31-3.09-2.3c-.84-.62-1.55-1.43-2.05-2.34-2.24-4.07-5.1-6.31-8.05-6.31-2.14,0-5,1.17-7.69,6.06l7.24-157.51M489.09,1200.94l-8.18,177.89c2.59-7.38,5.83-10.41,8.94-10.41,2.65,0,5.2,2.2,7.17,5.79.57,1.04,1.37,1.95,2.33,2.66l3.15,2.34,2.27,1.19-15.69-179.46h0ZM480.91,1378.83s-.02.07-.01.07.01-.02.01-.07h0Z"/>
      </g>
      <g>
        <polygon points="262.54 1337.78 257.08 1354.72 262.49 1256.92 267.84 1354.98 262.54 1337.78"/>
        <path d="M262.49,1266.04l4.63,84.92-3.64-11.8-.93-3.03-.97,3.02-3.78,11.74,4.7-84.84M262.5,1247.81l-6.05,109.16c0,.14.1.22.21.22.08,0,.16-.04.19-.14l5.67-17.6,5.92,19.18s.03.04.05.04c.03,0,.05-.02.05-.05l-6.04-110.79h0Z"/>
      </g>
      <polyline class="cls-15" points="618.14 862.83 617.45 917.27 623.88 884.52 618.14 862.83"/>
      <polyline class="cls-15" points="209.54 743.83 212.49 823.62 203.8 765.52 209.54 743.83"/>
      <path class="cls-15" d="M344.58,520.02c-2.53,3.44-3.71,6.61-3.47,10.09.2,2.91,1.55,5.63,3.51,7.79,3.81,4.18,3.73,8.75,2.65,13.42-.71,3.07-.37,6.36,1.31,9.02,1.41,2.24,2.91,2.73,4.47,1.91,2.13-1.12,2.94-3.75,2.26-6.05-1.12-3.79-1.36-6.82-1.06-9.39.19-1.62.92-3.09,1.8-4.47,1.21-1.9,1.64-6.46,1.95-11.42,2.21,12.14,4.56,23.82,7.86,32,1.55,3.83.32,14.28.32,14.28l4.35-5.68c-6.48-15.32-11.89-46.3-6.6-69.28l-12.7,11.25c-2.51,1.85-4.79,4.02-6.64,6.54Z"/>
      <path class="cls-11" d="M441.45,572.15c1.1,6.09,1.52,10.88,3.67,13.37,1.76,2.03,2.64,4.69,2.85,7.37l1.56,20.34c.02.23.03.47.02.71-.03,6.74,1.19,12.15,3.6,16.3,1.37,2.36,1.66,5.23.75,7.8-1.62,4.55-4.08,6.33-7.6,4.68-2.54-1.19-4.28-3.57-5.08-6.26-1.77-5.95-1.78-11.3-.67-16.28.34-1.54.14-3.16-.53-4.59-2.05-4.37-4.86-5.76-8.67-3.29-.82.53-1.48,1.3-1.96,2.16-1.73,3.13-3.53,5.92-5.61,7.19-2.12,1.29-3.84,3.15-4.79,5.45-2.63,6.35-6.34,12.48-10.78,18.47-2.49,3.36-2.62,7.93-.26,11.38,3.22,4.69,3.45,9.1-3.32,12.85-4.22,2.62-6.45-1.79-7.7-9.63l.63,9c.7,10.82-16.96,5.6-7.81-6.24,11.44-17.44,36.35-52.4,51.7-90.77Z"/>
      <path class="cls-11" d="M504.67,540.16c-1.21,4.75-.54,9.71,2.51,14.93,2.15,3.69,5.96,6.1,10.21,6.59.81.09,1.56.21,2.26.34,5.19.97,8.9,5.59,8.66,10.87-1.28,28.49,6.19,24.73,9.54,15.45,1.42-3.94,5.83-5.92,9.61-4.12,1.28.61,2.63,1.41,4.01,2.34,3.43,2.3,5.69,6.07,5.94,10.19.34,5.7,2.02,10.78,5.48,15.03,1.65,2.03,2.8,4.44,3.58,6.94,5.3,16.91,7.89,21.78,4.15-1.46-8.73-36.97-32.14-60.93-65.95-77.1Z"/>
      <path class="cls-11" d="M219.03,682.8c8,17.39,11.91,32.66,8.96,46.17-.93,4.19-3.97,8.09-5.92,3.95l-3.95-9.21c-2.86,12.56-3.82,23.29-3.06,32.35.16,1.95-2.53,2.6-3.26.79-.93-2.31-1.78-5.68-2.33-9.87,3.92-18.97,6.74-40.43,9.56-64.17Z"/>
      <path class="cls-15" d="M450.42,500.96c-.15-.11-1.55-1.24-1.52-1.05,1.08,8.41,1.65,16.4,1.98,25.94l5.95,3.2-6.13,2.33c-.56,9.06-2.1,18.05-4.97,26.1-14.39,40.41-37.18,77.61-60.77,111.98-15.76,24.67-31.91,51.07-47.3,74,13.19-.37,27.18-2.25,40.25-.45,1.65.23,3.3.47,6.16-4.34,46.39-59.71,83.99-133.28,104.66-207.21-11.25-3.61-24.82-20.58-38.3-30.5Z"/>
      <path class="cls-11" d="M236,1346.9c.14-.78,6.76-.37,5.66,5.61l-6.07,3.59.41-9.19Z"/>
      <path class="cls-11" d="M341.74,1378.98s7.17,2.51,11.63,4.11l.13-.42c.42-1.32,1.28-2.5,2.5-3.2,5.99-3.45,12.04,1.67,12.89,2.61l5.38,4.88c1.91-2.84,3.82-4.53,5.7-6.21.95-.85,2.24-3.19-.54-2.84-6.14,1.12-9.53-.65-11.7-3.72-.82-1.16-2.29-1.77-3.68-1.44-.4.1-.82.24-1.25.41-1.27.51-2.79-.05-3.32-1.29-1.33-3.08-3.77-3.75-7.49-1.63-1.02.58-1.77,1.57-2,2.7-.5,2.43-.68,5.95-6.13,4.33-2.75-1.45-2.13,1.7-2.13,1.7Z"/>
      <path class="cls-11" d="M561.78,1353.6l-3.22-80.31s0-.01,0,0c-2.44,23.67-1.71,68.4-1.51,78.12.02.84-.66,1.54-1.51,1.52-1.4-.04-3.26.29-3.14.86,2.14.25,4.36,1.5,7.44,2.43.56.31,1.28-.19,1.56-.76s.4-1.3.39-1.85Z"/>
      <line class="cls-19" x1="514.95" y1="822.15" x2="536.47" y2="937.2"/>
    </g>
    <g>
      <g>
        <path d="M678.43-271.49"/>
        <g class="cls-23">
          <g>
            <rect x="-231.84" y="-271.49" width="910.27" height="1287.38"/>
            <g class="cls-20">
              <g>
                <rect x="-120.37" y="-271.49" width="687.33" height="1287.38"/>
                <g class="cls-22">
                  <g>
                    <rect x="-120.37" y="-271.49" width="687.33" height="1287.38"/>
                    <rect class="cls-14" x="-120.37" y="-271.49" width="687.33" height="1287.38"/>
                  </g>
                </g>
                <rect class="cls-14" x="-120.37" y="-271.49" width="687.33" height="1287.38"/>
              </g>
              <g>
                <rect x="-231.84" y="-271.49" width="910.27" height="1287.38"/>
                <g class="cls-21">
                  <path class="cls-15" d="M405.9,294.09c13.22-7.56,41.52-5.73,54.98,1.37,16.03,8.45,30.4,20.05,42.04,33.93-1.99-1.34-3.97-2.69-5.96-4.03,14.59,15.84,19.58,38.03,24.02,59.1-2.06-3.26-11.63-8.25-9.88-4.81,8.67,17.04,21.47,51.06,26.02,67.02,1.23,4.3-12-16.61-16.34-17.74,1.55,8.67,3.2,10.76,7.2,18.6,5.54,10.88,13.94,24.79,15.21,36.94-3.4-4.86-6.9-10.48-11.67-14-.31,12.76,2.5,22.06,6.28,34.25-1.55-.46-3.09-.93-4.64-1.39,5.54,13.39,11.14,26.88,19.31,38.84,6.28,9.19,14.35,18.22,14.88,29.33-6.21-9.16-13.86-17.35-22.58-24.17,1.68,4.49,3.36,8.97,5.04,13.46-3.41-4.01-6.82-8.03-10.23-12.04-1.95,4.83,10.89,26.1,8.88,30.91-1.4,3.34-5.39,4.07-3.65,8.41,5.67,14.13-17.74-33.53-32.97-38.76,3.24,11.16,6.51,22.67,5.29,34.23-1.42,13.58-8.91,25.9-10.79,39.42.72-13.44,5.3-26.39,6.85-39.76,1.55-13.37-.66-28.42-10.83-37.24.04,24.84.02,50.06-6.84,73.94-2.34,8.17-5.49,16.15-6.83,24.54-2.99,18.58,3.02,37.61,1.02,56.32-3.39-26.67-6.75-53.93-1.32-80.27,1.2-5.8,2.81-11.51,4.07-17.29,3.63-16.71,4.21-34.08,1.72-51,.72,21.53-7.1,43.1-3.49,64.34.91,5.36,2.54,10.57,3.47,15.92,2.25,12.9.33,26.49-5.42,38.26,2.31-9.53,2.55-19.56.7-29.2-1.12-5.81-2.98-11.45-4.44-17.18-3.98-15.62-4.93-32.01-2.81-47.98.42,24.67-1.41,49.38-5.46,73.72-.88,5.28-1.86,10.72-.66,15.94.82,3.58,2.63,6.85,3.88,10.3,4.67,12.84,1.47,27.06-1.77,40.34-3.31-9.26.96-19.41.81-29.24-.15-9.64-4.54-18.73-5.62-28.31-1.07-9.5,1.17-19.02,2.5-28.49,1.74-12.39,1.92-25,.54-37.43.63,8.82.07,17.72-1.61,26.4-2.84,14.67-8.81,28.51-13.55,42.68-4.74,14.17-8.29,29.21-6.05,43.98-1.77-.45-2.35-2.64-2.55-4.45-1.54-13.74-.1-27.81,4.19-40.96,2.47-7.55,5.91-15.24,4.78-23.1-2.54,7.9-5.86,15.54-9.9,22.78.81-10.54,3.41-20.94,7.64-30.63,2.28-5.22,5.05-10.31,6.15-15.9.86-4.36.65-8.87,1.28-13.27.75-5.19,2.64-10.13,4.53-15.02-1.4,5.99-4.66,11.52-9.23,15.64,2.38-16.88,15.68-31.33,15.48-48.38-.17-14.66-10.26-27.1-19.82-38.21-2.86-3.33-5.72-6.65-6.63-7.16-.21-2.18-2.99-2.92-5.17-3.03-19.92-1.01-39.46,5-59.26,7.39-8.93,1.08-14.81-17.36-21.71-11.58-4.22,3.53-12.81,10.5-19.31,14.34-4.85,2.87-6.28,9.37-5.68,14.98,1.28,11.95,5.89,25.42,7.12,36.49,0,16.82-3.06,32.11-4.59,48.93,0,12.23,0,22.94,1.53,35.17,1.53,18.35-4.59,36.7-.23,55.43-3.04-6.65-2.55-11.61,0,0-8.95-14.14-1.3-29.43-2.83-43.19-3.06-15.29-3.06-29.05-3.19-44.83-2.74,11.81-3.68,24.03-2.77,36.12-7.47-22.66,2.93-46.45-.94-69.5-.64,7.11-2.2,14.14-4.64,20.86.22-7.1-.53-14.23-2.19-21.13-2.36,10.02.15,20.23,2.19,30.06,2.09,10.11,2.87,19.99,2.29,30.3-1.07,19.23-4.96,39.95,3.81,58.05-14.07-20.37-6.49-46.78-10.9-69.58-1.38,7.01-2.76,14.01-4.14,21.02,3.48-12.58,1.59-25.82-.27-38.5-6.11,18.67-5.47,39.45,1.76,57.71-8.25-15.7-10.29-32.07-7.61-49.45,2.84-18.49,2.17-35.84-.04-54.37l-6.62,47.69c-3.76-10.79,2.93-22.21,3.4-33.06.49-11.35-2.83-22.89.2-34.09-2.8,19.65-13.07,36.88-10.83,57.29,2.12,19.27,10.96,37.18,12.25,56.6-6.75-18.17-13.62-36.79-14.86-56.31-1.26-19.91,4.86-39.8,9-59.09-6.33,15.26-10.4,31.46-12.08,47.89-1.52,14.82,2.37,32.94-4.53,46.63,4.78-15.91.72-32.6.5-48.8-.11-8.09.92-15.85,3.69-23.47,2.8-7.71,6.78-15.29,6.82-23.68-3.25,6.75-5.89,13.79-7.86,21.02.46-3.69.93-7.38,1.39-11.07-12.96,13.22-13.68,33.38-13.94,50.77-5.06-18.28-2.32-38.57,7.4-54.86-7.77,2.37-23.32,36.35-21.97,30.82,9.61-39.24-16.65-8.13-18.69,1.92,5.03-15.44,8.5-31.38,10.34-47.51-1.61,3.9-6.3,18.33-7.91,22.23,1.39-5.32,4.55-21.51,3.33-26.87l-3.18,9.82c.57-10.59,2.09-19.77,6.68-28.94,16.82-29.05,37.31-83.19,35.13-83.55-7.08-1.18-25.69,48.91-21.67,30.17,4.03-18.75,13.41-49.21,20.92-62.05,7.13-12.18,17.97-18.47,14.55-33.37-7.36,9.8-14.14,13.83-17.08,25.72-3.98-13.39,4.48-26.59,11.63-37.22,7.68-11.4,15.85-19.35,23.58-30.72,6.63-9.75,17.14-17.45,27.36-23.66,19.32-10.37,34.86-14.67,54.54-5.4Z"/>
                </g>
                <rect class="cls-14" x="-231.84" y="-271.49" width="910.27" height="1287.38"/>
              </g>
            </g>
            <rect class="cls-14" x="-231.84" y="-271.49" width="910.27" height="1287.38"/>
          </g>
        </g>
        <path class="cls-14" d="M678.43-271.49"/>
      </g>
      <path class="cls-6" d="M415.96,323.29c-.79-.16-1.58-.29-2.37-.41-19.06-2.92-37.64,7.68-45.37,25.35-5.27,12.04-10.25,23.44-14.88,34.04-2.94,6.72-4.6,13.93-4.95,21.26-.19,4-.43,7.67-.74,10.86-.39,4.07-1.42,8.05-2.76,11.91-3.51,10.08-1.98,20.29,2.42,30.55.7,1.64,1.22,3.35,1.67,5.07s1.04,3.32,1.68,4.95l.9,2.28c3.96,8.92,4.23,9.53,5.36,11.69,6.52,12.46,10.9,17.84,17.16,25.96,2.23,2.89,4.78,5.54,7.58,7.89,3.61,3.02,7.25,6.06,7.97,6.66.1.08.19.15.28.22,1.07.77,7.45,5.29,11.1,5.4,3.29.33,6.71.29,10.18.12,4.16.13,10.04-2.55,13.29-5.15,11.89-9.48,22.41-18.09,27.42-26.86,1.55-2.47,5.74-8.53,5.74-8.53,0,0,5.49-8.42,7.65-14.83l7.56-17.88c3.05-9.04,3.99-18.66,2.73-28.11,0-.04-.01-.09-.02-.13-.05-.36-.13-.7-.24-1.04-1.96-6.08-3.11-13.94-3.85-23-.6-7.39-2.71-14.59-6.21-21.14-5.6-10.48-11.08-21.03-16.41-31.65-6.55-13.04-18.58-22.65-32.9-25.46Z"/>
      <path class="cls-15" d="M382.56,489.2l49.45.64-1.97,2.66c-2,2.7-4.88,4.65-8.14,5.44-10.18,2.47-20.46,2.06-30.83-.8-2.57-.71-4.78-2.37-6.27-4.58l-2.25-3.35Z"/>
      <path class="cls-15" d="M353.3,416.33l1.51,17.67c.17,2.04,1.43,3.82,3.29,4.68l36.31,16.73c-13.55-2.2-29.46-8.37-47-17.3l-3.07-6.41,3.94-15.97,5.03.6Z"/>
      <path class="cls-15" d="M467.54,415.6l-1.51,17.67c-.17,2.04-1.43,3.82-3.29,4.68l-36.31,16.73c13.55-2.2,29.46-8.37,47-17.3l2.44-3.92c-.07-5.02-2.11-13.75-3.96-20.72l-4.38,2.85Z"/>
      <path class="cls-5" d="M344.39,434.5c-.06-.12,3.11,7.36,3.15,7.49,2.03,8.43,21.55,35.37,24.28,38.24,4.71,4.98,6.24,6.73,10.75,8.97,16.53,8.2,36.99,7.5,54.4-1.74,5.6-2.97,7.97-5.28,10.81-8.93,9.79-12.62,24.8-38.96,22.39-39.04-23.07,52.13-91.4,62.24-125.77-4.99Z"/>
      <path class="cls-17" d="M343.41,431.67c46.33,39.7,88.97,38.51,132.47,1.79-9.44,17.93-18.69,32.33-27.54,39.25-3.52,1.95-4.03,2.75-10.3,6.73-16.34,10.39-32.56,11.39-52.04,3.09-2.77-1.18-3.49-2.43-6.3-4.2-2.05-1.29-4.88-1.44-7.74-2.69.2-4.41-15.11-8.9-28.55-43.98Z"/>
      <path class="cls-5" d="M343.41,433.21c48.72,43.9,91.99,31.33,130.87,2.95,0,0,.29-1.27.58-1.5-58.76,35.86-97.2,21.03-131.45-1.45"/>
      <g>
        <path d="M408.1,489.33c-23.74,0-43.94-12.67-51.78-32.38,15.48,14.16,34.54,21.94,53.79,21.94s37.86-8,52.77-23.16c-10.15,20.77-31,33.6-54.79,33.6Z"/>
        <path d="M461.96,457.01c-5.13,9.88-12.73,17.98-22.12,23.54-9.44,5.59-20.41,8.54-31.74,8.54-23.23,0-43.04-12.18-51.13-31.2,15.38,13.73,34.17,21.27,53.14,21.27s37.1-7.64,51.85-22.14M463.76,454.47c-15.86,16.67-34.85,24.18-53.65,24.18s-38.98-8.16-54.41-22.61c8.14,21.88,29.95,33.54,52.4,33.54s44.71-11.25,55.66-35.11h0Z"/>
      </g>
      <path class="cls-11" d="M460.47,459.98c-3.5,6.79-12.73,15.41-16.92,14.06-2.3,4.72-5.98,7.37-11.88,6.7-.11,3.43-7.26,7.57-10.7,3.53-2.18,2.22-4.67,3.62-8.59,1.29-1.51,1.53-3.86.87-6.35-.12-2.44,1.25-4.75,1.23-6.82-.82-2.31,1.84-4.97.87-7.76-1.18-2.21,1.36-4.92.63-8.23-2.71-4.46-.34-7.26-2.3-8.23-5.76-3.51.21-17.08-13.65-17.13-14.45,25.87,23.63,77.44,24.64,102.62-.55Z"/>
      <g>
        <path d="M409.24,468.91c-28.38,0-52.06-11.8-61.81-30.81,16.24,15.6,37.71,24.17,60.4,24.17s44.58-8.16,64.23-23.59c-10.74,18.63-34.79,30.23-62.81,30.23Z"/>
        <path d="M347.65,438.45c16.27,15.38,37.62,23.85,60.17,23.85s44.38-8.08,63.96-23.37c-5.48,9.4-14.44,17.13-25.95,22.38-10.84,4.95-23.5,7.56-36.6,7.56s-25.89-2.66-36.6-7.7c-11.36-5.34-19.99-13.19-24.99-22.71M347.4,438.12c10.54,20.54,36.08,30.83,61.84,30.83s51.23-10.09,62.79-30.29c-20.5,16.1-42.93,23.58-64.21,23.58-22.69,0-44.06-8.5-60.43-24.12h0Z"/>
      </g>
      <path class="cls-16" d="M406.14,479.63c0,1.44-.58,2.72-1.46,3.47-.53.45-.14,1.74-.83,1.74-.79,0-2.54-1.38-3.11-1.96-.75-.77-1.23-1.94-1.23-3.25,0-1.42-.16-3.23.69-3.99.54-.47,1.88.11,2.59.11.59,0,1.78-.39,2.26-.06,1.01.72,1.09,2.37,1.09,3.94Z"/>
      <path class="cls-16" d="M413.17,480.98c0,1.44-.58,2.72-1.46,3.47-.53.45-1.17.71-1.85.71-.79,0-1.52-.35-2.09-.93-.75-.77-1.23-1.94-1.23-3.25,0-1.42-.16-3.23.69-3.99.54-.47,1.88.11,2.59.11.59,0,.88,1.6,1.36,1.94,1.01.72,1.99.37,1.99,1.94Z"/>
      <path class="cls-16" d="M398.84,479.27c0,1.71-.58,3.21-1.46,4.1-.53.53-1.17.85-1.85.85-.79,0-1.14-1.54-1.71-2.23-.75-.91-1.61-1.17-1.61-2.72,0-1.68-.16-3.83.69-4.72.54-.56,1.88.13,2.59.13.59,0,1.15,1.44,1.63,1.84,1.01.85,1.72.89,1.72,2.75Z"/>
      <path class="cls-16" d="M392.13,477.12c0,2-.95,2.31-1.83,3.35-.53.62-.8,2.44-1.48,2.44-.79,0-1.52-.48-2.09-1.29-.75-1.06-1.23-2.68-1.23-4.5,0-1.97.71-2.46,1.57-3.5.54-.66-.08-4.52.62-4.52.59,0,2.87,2.11,3.35,2.57,1.01.99,1.09,3.28,1.09,5.45Z"/>
      <path class="cls-16" d="M419.72,480.71c0,1.71-.58,3.21-1.46,4.1-.53.53-.61-1.12-1.3-1.12-.79,0-2.07,1.55-2.64.86-.75-.91-1.23-2.29-1.23-3.85,0-1.68-.16-3.83.69-4.72.54-.56,1.88.13,2.59.13.59,0,1.73-2.35,2.21-1.95,1.01.85,1.14,4.68,1.14,6.54Z"/>
      <path class="cls-16" d="M425.75,479.85c0,1.71-.58,3.21-1.46,4.1-.53.53-1.17.85-1.85.85-.79,0-.54-2.32-1.11-3.01-.75-.91-2.21-.39-2.21-1.94,0-1.68-.16-3.83.69-4.72.54-.56,1.88.13,2.59.13.59,0,1.78-.46,2.26-.07,1.01.85,1.09,2.8,1.09,4.66Z"/>
      <path class="cls-16" d="M384.63,475.88c-.3,1.48-1.27,2.64-2.49,3.19-.73.33-.76-1.47-1.58-1.64-.95-.19-2.55,1.18-3.11.45-.74-.97-1.07-2.29-.8-3.63.3-1.45.48-3.35,1.67-3.92.75-.35,2.24.58,3.09.75.71.14,2.22.04,2.73.5,1.07.98.81,2.69.48,4.3Z"/>
      <path class="cls-16" d="M376.26,471.01c-.86,1.01-2.09,1.49-3.26,1.4-.7-.06.04-1.45-.52-1.93-.65-.55-2.46-.17-2.58-.98-.16-1.06.15-2.21.93-3.12.4-.47,2.5-3.49,3.1-3.93.71-.51-.26,3.91.39,4.5.37.35.28.57.51.77.48.41,2.68-.78,2.87-.21.4,1.21-.52,2.41-1.45,3.5Z"/>
      <path class="cls-11" d="M467.13,442.54c-25.6,32.79-86.56,36.89-115.39-.16,4.72,3.26,9.46,9.21,12.72,9.71,2.76.43,3.75,2.34,3.75,2.34,1.2-.29,7.02,1.39,7.06,3.77-.23-1.66,7.02-.23,6.79,2.88.89-2.21,6.91-2.12,6.17,2-.11-1.37,9.53-3.02,10.89,2.14,1.96-3.33,6.68-2.91,7.03.48,2.71-6,6.02-.29,6.57-.18,1.66-4.66,7.91-4.74,12.56-1.97-.32-6.67,6.96-1.98,6.96-1.98,2.75-6.03,7.22-2.71,7.22-2.71,2.45-2.57,4.63-3.46,6.93-3.22,2.29-2.27,4.48-3.46,6.99-3.84,5.27-.81,9.17-5.81,13.73-9.26Z"/>
      <path class="cls-16" d="M406.11,469.65c0-1.44-.58-2.72-1.46-3.47-.53-.45-.14-1.74-.83-1.74-.79,0-2.54,1.38-3.11,1.96-.75.77-1.23,1.94-1.23,3.25,0,1.42-.16,3.23.69,3.99.54.47,1.88-.11,2.59-.11.59,0,1.78.39,2.26.06,1.01-.72,1.09-2.37,1.09-3.94Z"/>
      <path class="cls-16" d="M406.64,469.52c0-1.44.58-2.72,1.46-3.47.53-.45.14-1.74.83-1.74.79,0,2.54,1.38,3.11,1.96.75.77,1.23,1.94,1.23,3.25,0,1.42-.58,2.26-1.43,3.01-.54.47-1.15.87-1.85.87-.59,0-.61-1.47-1.09-1.8-1.01-.72-2.26-.51-2.26-2.08Z"/>
      <path class="cls-16" d="M413.25,468.6c.06-1.44.7-2.69,1.62-3.4.55-.43.22-1.73.91-1.7.79.04,2.48,1.49,3.02,2.1.71.8,1.14,1.99,1.08,3.3-.06,1.42.02,3.24-.87,3.96-.56.45-1.88-.19-2.58-.23-.59-.03-1.8.31-2.26-.05-.98-.76-.98-2.41-.91-3.98Z"/>
      <path class="cls-16" d="M392.08,468.64c0-1.47.59-2.76,1.48-3.52.54-.46,1.28-1.99,1.98-1.99.8,0,1.44,1.62,2.02,2.21.76.78,1.25,1.97,1.25,3.3,0,1.44.17,3.29-.71,4.05-.55.48-1.91-.11-2.63-.11-.6,0-.9-1.63-1.38-1.97-1.03-.73-2.02-.38-2.02-1.97Z"/>
      <path class="cls-16" d="M382.2,465.82c0-1.7.81-1.96,1.56-2.85.45-.53.68-2.08,1.26-2.08.67,0,1.29.41,1.78,1.1.64.9,1.05,2.28,1.05,3.83,0,1.67-.61,2.09-1.34,2.98-.46.56.07,3.85-.53,3.85-.5,0-2.44-1.79-2.85-2.19-.86-.84-.93-2.79-.93-4.64Z"/>
      <path class="cls-16" d="M393.04,467c-.29.85-.94,1.47-1.7,1.71-.46.14-.3,2.34-.77,2.18-.55-.18-1.64-2.75-1.92-3.22-.37-.63-.47-1.43-.21-2.2.13-.4.42-.91.69-1.34.32-.5.09.14.64.35.32.12,1.09.89,1.29.96.41.14,1.73-1.31,1.99-1,.56.66.29,1.65-.02,2.58Z"/>
      <path class="cls-16" d="M419.82,467.56c.31.91,1.01,1.57,1.82,1.83.49.15.32,2.5.83,2.33.59-.2,1.75-2.94,2.05-3.45.39-.67.5-1.53.22-2.36-.14-.42-.45-.97-.74-1.43-.34-.54-.09.15-.69.37-.35.13-1.17.95-1.38,1.02-.44.15-1.85-1.4-2.13-1.07-.6.7-.31,1.77.03,2.76Z"/>
      <path class="cls-16" d="M432.97,466.41c.51,1.71.47,3.37-.02,4.49-.29.67-.75,1.15-1.34,1.32-.68.2-.65-2-1.35-2.55-.92-.72-2.51,0-2.98-1.56-.5-1.68-.02-2.29.45-3.41.29-.7-1.23-3.85-.63-4.03.5-.15,3,1.07,3.53,1.34,1.12.59,1.77,2.53,2.33,4.39Z"/>
      <path class="cls-16" d="M433.2,464.27c0-1.47.59-2.76,1.48-3.52.54-.46,1.28-1.99,1.98-1.99.8,0,1.44,1.62,2.02,2.21.76.78,1.25,1.97,1.25,3.3,0,1.44.17,3.29-.71,4.05-.55.48-1.91-.11-2.63-.11-.6,0-.9-1.63-1.38-1.97-1.03-.73-2.02-.38-2.02-1.97Z"/>
      <path class="cls-16" d="M374.39,460.28c0-1.22-.59-2.3-1.47-2.93-.53-.38-.83,1.05-1.52,1.05-.79,0-1.84-1.35-2.4-.85-.74.65-1.21,1.65-1.21,2.76,0,1.2-.15,2.74.71,3.38.54.4,1.87-.1,2.57-.1.58,0,1.77.32,2.25.04,1.01-.61,1.07-2.01,1.07-3.34Z"/>
      <path class="cls-16" d="M447.95,459.67c-.2-1.21-.95-2.17-1.92-2.66-.58-.29-.65,1.17-1.33,1.28-.78.13-2.03-1.03-2.51-.45-.63.76-.93,1.82-.75,2.91.2,1.19.29,2.73,1.24,3.22.59.31,1.83-.4,2.52-.52.58-.1,1.8.04,2.22-.32.89-.76.74-2.15.52-3.47Z"/>
      <path class="cls-16" d="M453.53,456.8c-.18-.96-.78-1.73-1.56-2.1-.47-.22-.51.94-1.05,1.04-.62.11-1.63-.8-2.01-.33-.49.62-.73,1.47-.57,2.34.17.95.26,2.18,1.03,2.56.48.24,1.46-.34,2.01-.44.46-.08,1.36,2.04,1.69,1.75.71-.62.64-3.76.45-4.81Z"/>
      <path class="cls-16" d="M367.64,455.83c0-.99-.47-1.86-1.19-2.37-.43-.31-.67.85-1.23.85-.64,0-1.49-1.09-1.94-.69-.6.53-.98,1.33-.98,2.23,0,.97.5,4.63,1.19,5.14.43.32.89-2.49,1.46-2.5.47,0,1.43.26,1.82.03.81-.49.87-1.62.86-2.7Z"/>
      <path class="cls-16" d="M368.82,467.03c-.56.82-1.44,1.27-2.31,1.3-.53.01-.08-1.08-.54-1.39-.53-.36-1.84.07-2-.52-.2-.77-.07-1.65.44-2.4.55-.8,1.14-1.91,2.01-1.94.54-.02,1.21.92,1.68,1.24.39.27,1.34.59,1.52.99.4.87-.19,1.83-.8,2.72Z"/>
      <path class="cls-16" d="M456.82,462.45c.47.65.57,1.45.33,2.14-.14.42-.87-.21-1.25.06-.44.32-.49,1.46-1,1.43-.66-.04-1.31-.37-1.74-.96-.47-.64-1.15-1.38-.93-2.07.14-.43,1.08-.71,1.46-1,.32-.24.85-.89,1.23-.94.79-.09,1.38.62,1.89,1.33Z"/>
      <path class="cls-11" d="M446.68,471.8c.34.66-.51,2.51-2.54,1.95-1.57-.44-2.4,1.41-2.73.75-.34-.66.57-1.8,2.03-2.54,1.46-.74,2.91-.81,3.25-.15Z"/>
      <path class="cls-11" d="M445.87,472.3c.15.44-.54,1.5-1.74.97-.93-.41-1.6.65-1.75.21s.51-1.05,1.48-1.38,1.86-.24,2.01.2Z"/>
      <path class="cls-11" d="M452.36,467.63c.26.5.05,2.82-1.49,2.39-1.19-.33-2.25.63-2.51.14s.61-1.27,1.71-1.83,2.03-1.2,2.28-.7Z"/>
      <path class="cls-11" d="M452.02,468.05c.11.33-.32,1.98-1.23,1.58-.7-.31-1.7.49-1.82.16s.68-1.1,1.41-1.35,1.52-.72,1.63-.39Z"/>
      <path class="cls-16" d="M425.01,477.53c0,2,.58,3.76,1.46,4.8.53.62,1.17.99,1.85.99.79,0-.76-2.19-.19-3,.75-1.06,3.51-.97,3.51-2.79,0-1.97-.71-2.46-1.57-3.5-.54-.66.08-4.52-.62-4.52-.59,0-2.87,2.11-3.35,2.57-1.01.99-1.09,3.28-1.09,5.45Z"/>
      <path class="cls-16" d="M433.14,475.88c.4,1.07,1.19,1.86,2.05,2.17.52.19.59,1.25,1.1,1.06.59-.22,1.51-1.73,1.77-2.32.34-.78.37-1.78,0-2.76-.4-1.06-.78-2.45-1.63-2.77-.53-.2-1.37.61-1.9.8-.44.16-1.43.2-1.7.59-.55.81-.15,2.06.29,3.23Z"/>
      <path class="cls-2" d="M397.66,493.85c.88-1.31,1.68-3.8.47-5.04l1.51.21c-.63,1.65-.84,3.64-.17,5.13l-1.82-.29Z"/>
      <path class="cls-15" d="M397.98,493.79c.52-.6,1.2-4.34.55-4.94l.81.1c-.29.78-.67,4.29-.36,5l-1-.16Z"/>
      <path class="cls-2" d="M379.67,487.28c.67-1.37,1.01-3.14.1-4.45l1.5.39c-.47,1.73-.71,3.17-.2,4.73l-1.39-.68Z"/>
      <path class="cls-15" d="M379.88,487.33c.41-.57,1.11-3.15.49-4.18l.57.24c-.22.82-.53,3.63-.3,4.37l-.77-.42Z"/>
      <path class="cls-2" d="M431.14,458.25c.46-1.16.34-3.24-.28-4.34l.81-.21c-.32,1.46.36,2.86.71,4.18l-1.24.37Z"/>
      <path class="cls-15" d="M431.39,458.15c.27-.54.04-3.69-.3-4.23l.43-.1c-.24.71.36,3.52.6,4.13l-.73.21Z"/>
      <path class="cls-2" d="M394.65,460.32c-.63-1.25-.71-3.59-.25-4.91l-.91-.17c.54,1.6.4,3.43.25,4.96l.91.12Z"/>
      <path class="cls-15" d="M394.56,460.28c-.44-.52-.67-4.22-.3-4.8l-.63-.11c.35.7.34,4.14.19,4.81l.74.11Z"/>
      <path class="cls-11" d="M376.39,461.22c.14-.54,1.84-2.14,2.7-.8.67,1.04,2.11,1.02,1.97,1.56s-1.3.54-2.5.23-2.31-.45-2.17-.99Z"/>
      <path class="cls-11" d="M376.92,461.13c.14-.32,1.56-1.27,1.97-.37.32.7,1.6.76,1.46,1.08s-1.24.37-1.95.07-1.62-.47-1.48-.79Z"/>
      <polygon class="cls-15" points="349.99 448.61 351.63 458.77 351.59 450.68 349.99 448.61"/>
      <polygon class="cls-15" points="366.19 446.15 365.66 435.26 364.63 445.18 366.19 446.15"/>
      <polygon class="cls-15" points="437.44 487.26 436.53 504.46 435 488.8 437.44 487.26"/>
      <polygon class="cls-15" points="447.13 448.57 446.69 442.47 446.21 448.66 447.13 448.57"/>
      <path class="cls-15" d="M371.24,506.12c-1.88,7.3-4.49,14.04-8.36,19.81-1.83-6.73-2.06-17.13,2.72-27.22l5.64,7.41Z"/>
      <path class="cls-15" d="M443.81,506.44c-.02,7,2.53,13.89,6.34,19.76,3.17-7.81,1.32-17.14-.52-26.61l-5.82,6.85Z"/>
      <path class="cls-15" d="M422.31,441.55c.37-.58.79-1.62.75-2.59,0,0,0,0,0-.01-.18-2.57-.79-13.6,1.76-16.16,1.95-1.96,5.27-2.87,8.01-2.47,10.25,1.53,26.43-.18,39.62-4.39-.44-10.19-3.29-20.53-4.68-24.82-23.31.75-43.3,6.94-49.8,18.12-.85,1.46-1.71,4.05-2.02,5.71-1.49,7.95-.21,14.85,1.41,19.83,1.14,2.48-1.27,5-1.93,5.5-1.34,1.02-2.45,1.97-4.15,2.8-2.27,1.11-3.43,1.42-5.95.18-1.89-.93-3.4-1.92-4.17-2.45-.44-.3-.8-.68-1.08-1.13-.67-1.08-1.98-3.11-.86-5.52,1.64-5.04,2.93-12.03,1.36-20.1-.38-1.97-1.05-3.9-2.07-5.62-6.59-11.06-24.33-16.31-47.51-17.06-1.39,4.28-2.29,14.04-2.73,24.22,0,0,0,.13,0,.13,13.19,4.21,25.24,5.5,35.48,3.97,2.73-.41,6.06.51,8.01,2.47,2.86,2.88,2.81,8.35,2.27,15.3-.04.56-.07,1.05-.07,1.64.07,2.81,3.62,5.79,10.12,8.86,3.94,1.98,4.12,2.14,7.89.41,6.26-2.9,8.95-4.66,10.34-6.83Z"/>
      <g>
        <path class="cls-4" d="M392.3,411.11c-13.3,3.69-25.4,5.32-30.86-6.5"/>
        <path class="cls-15" d="M378.75,409.46l-.98-.95-1.19.55-1.97-.76-1.94.55c1.78,1.74,4.72,1.65,6.08.62Z"/>
        <g>
          <path d="M377.08,411.93c-1.23,0-2.46-.09-3.77-.26-4.52-.61-8.52-2.47-11.27-5.26-.17-.17-.98-1.04-.62-1.54.1-.14.29-.26.52-.39,3.02-1.76,5.81-2.91,8.54-3.53,1.59-.36,3.24-.54,4.92-.54,6.43,0,12.43,2.68,15.65,6.99.09.11.19.21.31.32.43.42,1.07,1.05,1.15,1.83.04.39-.13.82-.44,1.16-.28.31-.64.49-.98.49h0c-.09,0-.18-.01-.27-.03-.27-.07-.53-.25-.81-.44-.27-.19-.55-.38-.9-.51-.31-.12-.63-.17-1-.17-.68,0-1.36.2-1.97.39-3.51,1.05-6.22,1.49-9.06,1.49Z"/>
          <path d="M375.39,400.92c6.28,0,12.12,2.6,15.25,6.79l.02.03.03.03c.08.09.18.2.31.32.37.37.94.92,1,1.52.02.24-.1.55-.31.78-.18.2-.41.32-.61.32-.05,0-.09,0-.14-.02-.19-.05-.41-.2-.65-.37-.28-.19-.6-.41-1.01-.57-.36-.14-.75-.2-1.17-.2-.75,0-1.47.21-2.12.41-3.46,1.03-6.12,1.47-8.91,1.47-1.21,0-2.42-.08-3.7-.26-4.41-.59-8.31-2.41-10.99-5.11-.46-.46-.58-.82-.57-.9.05-.06.26-.19.36-.24,2.97-1.73,5.72-2.87,8.4-3.48,1.55-.35,3.17-.53,4.81-.53M375.39,399.92c-1.7,0-3.39.18-5.03.56-3.09.7-5.99,2.02-8.68,3.59-.25.15-.51.3-.67.53-.49.68.08,1.58.68,2.18,2.97,3,7.21,4.82,11.56,5.4,1.35.18,2.62.26,3.84.26,3.21,0,6.08-.58,9.2-1.51.59-.18,1.22-.37,1.83-.37.28,0,.56.04.82.14.63.24,1.1.79,1.75.96.13.04.26.05.39.05,1.08,0,2.02-1.14,1.92-2.2-.11-1.18-1.21-2.01-1.55-2.41-3.5-4.68-9.77-7.19-16.05-7.19h0Z"/>
        </g>
        <path class="cls-15" d="M388.32,409.34c-.07.12-.15.15-.06.21.66.41,2.34,1.33,3.03,1.33.77,0,1.24-.38,1.09-1.13-.13-.65-1.54-1.98-2.19-2.27-.07-.03-.13,0-.18.03-.64.32-1.3,1.21-1.69,1.83Z"/>
        <ellipse class="cls-15" cx="374.04" cy="405.92" rx=".37" ry=".34"/>
        <g>
          <path d="M390.75,409.07c0,.49-.17.91.04.91s.39-.43.39-.92-.17-.83-.38-.83c-.63.02-.05.35-.05.83Z"/>
          <path d="M390.8,408.24s0,0,0,0c-.63.02-.05.35-.05.83s-.17.91.04.91.39-.43.39-.92-.17-.83-.37-.83h0Z"/>
        </g>
        <g>
          <path d="M390.79,409.06c0,.49-.17.91.04.91s.39-.43.39-.92-.17-.83-.38-.83c-.63.02-.05.35-.05.83Z"/>
          <path d="M390.84,408.22s0,0,0,0c-.63.02-.05.35-.05.83s-.17.91.04.91.39-.43.39-.92-.17-.83-.37-.83h0Z"/>
        </g>
        <path class="cls-15" d="M389.21,409.8c.3.18,1.67.79,2.1.79s.96-.14.96-.36-.53-.44-.96-.44-2.3-.12-2.1,0Z"/>
        <path class="cls-15" d="M389.23,409.82c.3.18,1.61.83,2.04.83s.96-.14.96-.36-.53-.44-.96-.44-2.24-.15-2.04-.03Z"/>
        <polyline class="cls-8" points="390.02 407.08 388.7 406.9 386.34 407.14 386.32 405.83 383.38 405.87 383.34 404.09 381.26 403.12 380.48 403.25"/>
        <polyline class="cls-8" points="388.76 408.05 386.49 407.89 385.23 407.19 385.58 408.69 383.86 408.81 382.41 407.82 380.88 408.78"/>
        <polyline class="cls-8" points="387.91 408.79 386.86 408.5 386.16 408.79 385.97 408.1"/>
        <polyline class="cls-8" points="389.86 406.83 388.14 406.26 387.23 406.34 386.79 405.35"/>
        <polyline class="cls-8" points="389.99 407.11 388.66 406.93 386.3 407.18 386.28 405.87 383.35 405.91 383.31 404.12 381.22 403.16 380.45 403.29"/>
        <polyline class="cls-8" points="388.75 408.1 386.5 407.92 385.24 407.22 385.58 408.72 383.87 408.84 382.41 407.85 380.89 408.81"/>
        <polyline class="cls-8" points="387.9 408.83 386.84 408.52 386.15 408.8 385.95 408.12"/>
        <polyline class="cls-8" points="388.89 406.55 388.1 406.29 387.19 406.37 386.76 405.39"/>
        <polyline class="cls-8" points="364.23 404.45 365.18 404.92 366.29 404 367.54 404.25 369.22 405.8 369.26 404.02 371.34 403.06 372.11 403.18"/>
        <polyline class="cls-8" points="364.21 404.46 365.17 404.93 366.28 404.02 367.54 404.27 369.22 405.82 369.27 404.03 371.35 403.07 372.12 403.19"/>
        <polyline class="cls-8" points="362.92 405.31 366.03 405.55 366.85 406.41 367.67 405.42 368.23 406.06"/>
        <polyline class="cls-8" points="362.91 405.33 366.03 405.59 366.85 406.44 367.66 405.46 368.22 406.09"/>
        <polyline class="cls-8" points="363.18 405.99 365.92 407.16 367 406.74 367.54 407.77 368.4 408.5 369.86 407.51 371.38 408.47"/>
        <polyline class="cls-8" points="363.23 406.03 365.91 407.19 366.99 406.78 367.53 407.8 368.39 408.54 369.85 407.55 371.37 408.51"/>
        <path class="cls-12" d="M387.69,409.82c.72-1.46,1.99-2.11,3.7-2.09"/>
        <ellipse class="cls-15" cx="362.58" cy="405.56" rx=".84" ry=".77"/>
        <g>
          <ellipse class="cls-9" cx="376.54" cy="406.23" rx="5.28" ry="4.88"/>
          <polygon class="cls-15" points="377.23 401.62 377.23 402.25 377.53 401.64 377.38 402.5 377.7 401.68 377.6 402.4 377.9 401.73 377.75 402.65 378.17 401.84 377.81 402.92 378.47 401.93 378.37 402.48 378.74 402.02 378.45 402.72 378.96 402.14 378.51 402.92 379.2 402.25 378.93 402.73 379.39 402.39 379.02 403.03 379.62 402.55 378.98 403.29 379.92 402.78 379.51 403.19 380.13 402.96 379.9 403.24 380.26 403.1 379.66 403.54 380.45 403.3 380.14 403.55 380.58 403.45 380.13 403.79 380.77 403.75 380.1 404.22 380.93 403.97 379.92 404.55 381.07 404.25 380.68 404.56 381.16 404.43 380.49 404.93 381.27 404.73 380.12 405.33 381.39 405.15 380.45 405.46 381.46 405.46 380.88 405.63 381.49 405.63 380.41 405.87 381.51 405.93 380.8 406.15 381.53 406.23 380.43 406.33 381.52 406.47 380.89 406.49 381.49 406.72 380.69 406.75 381.45 406.96 380.26 406.99 381.39 407.25 380.51 407.24 381.31 407.51 380.15 407.44 381.19 407.87 379.92 407.69 381.05 408.17 380.63 408.12 380.94 408.38 380.28 408.2 380.78 408.68 379.74 408.06 380.6 408.91 379.91 408.55 380.42 409.14 379.53 408.69 380.19 409.35 379.39 409.06 379.93 409.58 378.75 408.9 379.6 409.86 378.79 409.24 379.28 410.1 378.64 409.61 378.91 410.29 377.93 409.18 378.46 410.49 378 409.72 378.17 410.61 377.89 410.21 377.88 410.7 377.55 410.02 377.57 410.75 377.19 409.74 377.23 410.85 376.96 410.2 376.88 410.88 376.77 410.05 376.63 410.86 376.47 409.63 376.31 410.88 376.23 409.88 376.02 410.86 375.96 410.11 375.75 410.81 375.78 409.68 375.44 410.79 375.49 409.99 375.18 410.73 375.36 409.51 374.85 410.64 374.87 409.59 374.42 410.48 374.7 409.21 373.99 410.31 374.17 409.59 373.74 410.14 374.04 409.25 373.42 409.93 373.99 408.95 373.11 409.69 373.6 408.76 372.76 409.36 373.43 408.3 372.5 409.12 372.69 408.75 372.39 408.94 372.91 408.37 372.2 408.65 372.86 408.08 372.01 408.39 373.02 407.66 371.87 408.08 372.24 407.78 371.76 407.88 372.22 407.51 371.69 407.63 372.28 407.21 371.61 407.36 372.59 406.95 371.52 407.05 372.12 406.68 371.47 406.74 372.26 406.22 371.4 406.12 372.31 405.87 371.42 405.75 372.03 405.58 371.53 405.31 372.45 405.28 371.63 404.87 372.19 404.87 371.75 404.59 372.82 404.67 371.91 404.19 372.68 404.31 372.08 403.9 372.97 404.01 372.36 403.55 373.26 403.81 372.63 403.23 373.34 403.43 372.93 402.9 373.44 403.26 373.17 402.71 373.56 403.09 373.4 402.52 374.1 403.4 373.78 402.28 374.34 403 374.07 402.12 374.48 402.69 374.27 402.02 374.91 402.83 374.79 401.84 375.2 402.51 375.29 401.74 375.62 402.89 375.7 401.63 375.93 402.24 376.07 401.6 376.3 402.37 376.57 401.56 376.67 402.29 376.85 401.54 376.92 402.7 377.23 401.62"/>
          <polygon class="cls-15" points="375.87 404.22 375.74 403.74 376 404.2 375.93 403.47 376.22 404.16 376.27 403.72 376.37 404.15 376.49 403.51 376.62 404.16 376.72 403.81 376.8 404.14 376.91 403.76 376.91 404.17 377.14 403.59 377.07 404.2 377.26 403.9 377.25 404.24 377.48 403.85 377.39 404.3 377.79 403.62 377.56 404.36 377.85 404.01 377.73 404.44 378.05 404.03 377.87 404.55 378.14 404.27 377.98 404.61 378.37 404.22 378.13 404.72 378.59 404.27 378.23 404.82 378.6 404.54 378.35 404.94 379 404.46 378.49 405.12 379.02 404.87 378.6 405.32 379.46 405.09 378.7 405.57 379.33 405.51 378.74 405.76 379.12 405.74 378.77 405.88 379.64 405.9 378.81 406.02 379.89 406.17 378.81 406.3 379.47 406.45 378.79 406.5 379.61 406.73 378.75 406.75 379.75 407.2 378.7 407.01 379.02 407.29 378.59 407.17 379.04 407.56 378.49 407.3 378.97 407.94 378.35 407.51 378.87 408.31 378.14 407.72 378.28 408.21 377.97 407.88 378.05 408.48 377.75 408.02 377.71 408.74 377.5 408.15 377.38 409.22 377.17 408.26 377.11 408.75 376.97 408.31 376.87 408.96 376.75 408.34 376.53 409.1 376.47 408.35 376.34 408.65 376.31 408.34 376.13 408.72 376.11 408.3 375.8 408.76 375.93 408.26 375.4 408.97 375.64 408.15 375.21 408.65 375.42 408.05 375.08 408.4 375.25 407.95 374.82 408.36 375.08 407.84 374.43 408.46 374.9 407.68 374.26 408.08 374.75 407.51 374.5 407.63 374.67 407.41 374.14 407.65 374.55 407.22 374.07 407.38 374.46 407.06 373.67 407.28 374.39 406.83 373.76 406.93 374.33 406.69 373.21 406.84 374.3 406.44 373.67 406.4 374.27 406.23 373.37 406.13 374.3 406.06 373.83 405.93 374.33 405.88 374 405.73 374.33 405.81 375.87 404.22"/>
          <ellipse class="cls-1" cx="376.4" cy="406.2" rx="2.04" ry="1.89"/>
          <ellipse class="cls-15" cx="374.96" cy="404.86" rx="1.17" ry="1.08"/>
        </g>
        <path class="cls-7" d="M361.37,405.42c11.63-6.05,20.96-4.92,30.22,2.6,2.48,1.48,1.8,5.23-3.7,2.01-12.03,2.52-21.09.78-26.33-4.35"/>
      </g>
      <g>
        <path class="cls-4" d="M425.33,411.3c13.3,3.69,25.4,5.32,30.86-6.5"/>
        <path class="cls-15" d="M438.87,409.64l.98-.95,1.19.55,1.97-.76,1.94.55c-1.78,1.74-4.72,1.65-6.08.62Z"/>
        <g>
          <path d="M440.55,412.12c-2.84,0-5.55-.45-9.05-1.49-.61-.18-1.3-.39-1.97-.39-.36,0-.69.06-1,.17-.34.13-.63.32-.9.51-.27.19-.53.36-.81.44-.09.02-.18.04-.27.04-.34,0-.7-.18-.98-.49-.31-.34-.47-.78-.44-1.17.07-.78.72-1.41,1.15-1.83.12-.11.21-.21.28-.29,3.25-4.34,9.24-7.02,15.67-7.02,1.68,0,3.33.18,4.92.54,2.73.62,5.53,1.77,8.54,3.53.22.13.42.25.52.39.36.5-.46,1.37-.62,1.54-2.75,2.78-6.76,4.65-11.27,5.26-1.31.18-2.54.26-3.77.26Z"/>
          <path d="M442.24,401.11h0c1.64,0,3.26.18,4.81.53,2.68.61,5.43,1.74,8.41,3.48.09.05.31.18.36.23.01.09-.11.44-.57.91-2.68,2.71-6.58,4.52-10.99,5.11-1.28.17-2.5.26-3.7.26-2.79,0-5.45-.44-8.92-1.47-.64-.19-1.36-.4-2.11-.4-.42,0-.81.07-1.18.21-.4.15-.72.37-1,.56-.25.17-.46.32-.65.37-.05.01-.09.02-.14.02-.2,0-.43-.12-.61-.32-.21-.23-.33-.54-.31-.78.06-.6.62-1.15,1-1.52.13-.12.23-.23.31-.32l.03-.03.02-.03c3.13-4.19,8.97-6.79,15.25-6.79M442.24,400.11c-6.28,0-12.55,2.51-16.05,7.19-.34.39-1.44,1.22-1.55,2.41-.1,1.06.84,2.2,1.92,2.2.13,0,.26-.02.39-.05.66-.17,1.12-.72,1.75-.96.26-.1.54-.14.82-.14.61,0,1.24.19,1.83.37,3.11.93,5.98,1.51,9.2,1.51,1.22,0,2.49-.08,3.84-.26,4.36-.58,8.59-2.4,11.56-5.4.6-.6,1.16-1.5.68-2.18-.16-.23-.42-.38-.67-.53-2.69-1.57-5.59-2.88-8.68-3.59-1.64-.37-3.34-.56-5.03-.56h0Z"/>
        </g>
        <path class="cls-15" d="M429.31,409.53c.07.12.15.15.06.21-.66.41-2.34,1.33-3.03,1.33-.77,0-1.24-.38-1.09-1.13.13-.65,1.54-1.98,2.19-2.27.07-.03.13,0,.18.03.64.32,1.3,1.21,1.69,1.83Z"/>
        <ellipse class="cls-15" cx="443.59" cy="406.11" rx=".37" ry=".34"/>
        <g>
          <path d="M426.88,409.26c0,.49.17.91-.04.91s-.39-.43-.39-.92.17-.83.38-.83c.63.02.05.35.05.83Z"/>
          <path d="M426.83,408.43c-.2,0-.37.35-.37.83s.18.92.39.92.04-.43.04-.91.59-.82-.05-.83c0,0,0,0,0,0h0Z"/>
        </g>
        <g>
          <path d="M426.84,409.24c0,.49.17.91-.04.91s-.39-.43-.39-.92.17-.83.38-.83c.63.02.05.35.05.83Z"/>
          <path d="M426.79,408.41c-.2,0-.37.35-.37.83s.18.92.39.92.04-.43.04-.91.59-.82-.05-.83c0,0,0,0,0,0h0Z"/>
        </g>
        <path class="cls-15" d="M428.42,409.99c-.3.18-1.67.79-2.1.79s-.96-.14-.96-.36.53-.44.96-.44,2.3-.12,2.1,0Z"/>
        <path class="cls-15" d="M428.4,410c-.3.18-1.61.83-2.04.83s-.96-.14-.96-.36.53-.44.96-.44,2.24-.15,2.04-.03Z"/>
        <polyline class="cls-8" points="427.6 407.26 428.93 407.08 431.29 407.33 431.31 406.02 434.24 406.06 434.29 404.27 436.37 403.31 437.14 403.44"/>
        <polyline class="cls-8" points="428.86 408.24 431.14 408.08 432.39 407.37 432.05 408.88 433.76 409 435.22 408.01 436.74 408.97"/>
        <polyline class="cls-8" points="429.72 408.98 430.77 408.69 431.46 408.97 431.66 408.29"/>
        <polyline class="cls-8" points="427.77 407.02 429.49 406.44 430.4 406.52 430.83 405.54"/>
        <polyline class="cls-8" points="427.64 407.3 428.97 407.12 431.33 407.36 431.35 406.06 434.28 406.1 434.32 404.31 436.4 403.35 437.18 403.47"/>
        <polyline class="cls-8" points="428.87 408.28 431.13 408.11 432.39 407.4 432.04 408.91 433.76 409.03 435.22 408.04 436.74 409"/>
        <polyline class="cls-8" points="429.73 409.01 430.78 408.71 431.48 408.99 431.67 408.31"/>
        <polyline class="cls-8" points="428.74 406.74 429.52 406.48 430.44 406.56 430.87 405.58"/>
        <polyline class="cls-8" points="453.4 404.63 452.45 405.1 451.34 404.19 450.08 404.44 448.41 405.98 448.37 404.2 446.29 403.24 445.52 403.37"/>
        <polyline class="cls-8" points="453.41 404.65 452.45 405.12 451.34 404.2 450.08 404.45 448.4 406 448.36 404.22 446.28 403.25 445.5 403.38"/>
        <polyline class="cls-8" points="454.71 405.49 451.6 405.74 450.77 406.6 449.96 405.61 449.4 406.25"/>
        <polyline class="cls-8" points="454.72 405.52 451.6 405.78 450.78 406.63 449.96 405.65 449.4 406.28"/>
        <polyline class="cls-8" points="454.45 406.18 451.71 407.35 450.63 406.93 450.09 407.96 449.23 408.69 447.77 407.7 446.25 408.66"/>
        <polyline class="cls-8" points="454.4 406.22 451.72 407.38 450.64 406.96 450.1 407.99 449.24 408.73 447.78 407.73 446.26 408.69"/>
        <path class="cls-12" d="M429.94,410.01c-.72-1.46-1.99-2.11-3.7-2.09"/>
        <ellipse class="cls-15" cx="455.04" cy="405.75" rx=".84" ry=".77"/>
        <g>
          <ellipse class="cls-9" cx="441.08" cy="406.42" rx="5.28" ry="4.88"/>
          <polygon class="cls-15" points="440.4 401.81 440.39 402.43 440.09 401.83 440.25 402.69 439.92 401.87 440.03 402.59 439.73 401.92 439.87 402.84 439.45 402.02 439.82 403.11 439.15 402.11 439.26 402.67 438.89 402.21 439.18 402.91 438.67 402.33 439.12 403.11 438.42 402.44 438.7 402.91 438.24 402.58 438.61 403.21 438 402.74 438.64 403.48 437.71 402.97 438.12 403.38 437.49 403.15 437.73 403.42 437.37 403.29 437.97 403.72 437.18 403.48 437.48 403.74 437.05 403.63 437.49 403.98 436.85 403.93 437.53 404.41 436.7 404.16 437.7 404.73 436.55 404.43 436.95 404.75 436.46 404.62 437.14 405.12 436.36 404.91 437.51 405.52 436.24 405.33 437.18 405.65 436.16 405.65 436.75 405.81 436.14 405.82 437.22 406.06 436.12 406.11 436.83 406.34 436.1 406.42 437.2 406.52 436.11 406.66 436.74 406.67 436.14 406.91 436.93 406.94 436.17 407.15 437.37 407.18 436.24 407.44 437.11 407.43 436.32 407.7 437.48 407.63 436.44 408.06 437.7 407.87 436.58 408.36 437 408.31 436.69 408.57 437.35 408.39 436.84 408.87 437.89 408.25 437.03 409.09 437.72 408.74 437.21 409.33 438.09 408.88 437.44 409.54 438.24 409.25 437.7 409.77 438.88 409.09 438.03 410.05 438.84 409.42 438.35 410.29 438.99 409.8 438.72 410.48 439.7 409.37 439.17 410.68 439.63 409.9 439.46 410.8 439.74 410.4 439.74 410.88 440.08 410.2 440.05 410.94 440.44 409.93 440.39 411.03 440.67 410.39 440.75 411.06 440.86 410.24 441 411.05 441.15 409.81 441.32 411.06 441.4 410.07 441.61 411.05 441.66 410.3 441.87 411 441.85 409.87 442.18 410.97 442.14 410.18 442.45 410.91 442.27 409.69 442.78 410.82 442.76 409.78 443.21 410.67 442.93 409.4 443.64 410.49 443.45 409.78 443.89 410.32 443.58 409.44 444.21 410.11 443.64 409.14 444.51 409.88 444.03 408.95 444.86 409.55 444.2 408.49 445.12 409.3 444.94 408.94 445.24 409.12 444.72 408.55 445.43 408.84 444.77 408.26 445.62 408.58 444.61 407.85 445.76 408.27 445.39 407.96 445.87 408.07 445.41 407.7 445.94 407.82 445.35 407.4 446.02 407.55 445.04 407.14 446.11 407.24 445.5 406.87 446.16 406.93 445.37 406.4 446.23 406.3 445.32 406.06 446.21 405.93 445.6 405.77 446.1 405.5 445.18 405.47 446 405.06 445.44 405.06 445.88 404.78 444.81 404.86 445.71 404.37 444.95 404.5 445.55 404.09 444.65 404.2 445.27 403.73 444.37 404 444.99 403.41 444.29 403.62 444.69 403.09 444.19 403.45 444.46 402.9 444.07 403.27 444.22 402.7 443.53 403.59 443.85 402.47 443.29 403.19 443.56 402.31 443.15 402.88 443.36 402.21 442.72 403.02 442.84 402.03 442.42 402.7 442.34 401.93 442 403.08 441.93 401.82 441.7 402.43 441.56 401.79 441.32 402.55 441.06 401.75 440.96 402.48 440.78 401.73 440.7 402.89 440.4 401.81"/>
          <polygon class="cls-15" points="441.75 404.41 441.89 403.92 441.63 404.39 441.7 403.66 441.4 404.34 441.36 403.91 441.26 404.33 441.13 403.7 441.01 404.35 440.91 404 440.83 404.33 440.72 403.95 440.72 404.36 440.49 403.78 440.56 404.39 440.36 404.09 440.38 404.43 440.14 404.03 440.24 404.49 439.84 403.81 440.07 404.55 439.78 404.2 439.89 404.63 439.58 404.22 439.76 404.74 439.49 404.45 439.65 404.8 439.26 404.41 439.5 404.91 439.03 404.46 439.4 405.01 439.03 404.73 439.28 405.12 438.63 404.65 439.14 405.31 438.61 405.06 439.02 405.51 438.17 405.27 438.92 405.76 438.3 405.7 438.88 405.94 438.51 405.92 438.85 406.07 437.99 406.09 438.82 406.21 437.74 406.35 438.82 406.49 438.16 406.64 438.84 406.69 438.02 406.92 438.88 406.93 437.88 407.39 438.93 407.2 438.61 407.48 439.03 407.35 438.59 407.75 439.14 407.49 438.66 408.12 439.28 407.7 438.76 408.5 439.48 407.91 439.35 408.4 439.66 408.07 439.58 408.66 439.88 408.21 439.92 408.92 440.13 408.34 440.25 409.41 440.46 408.44 440.52 408.94 440.65 408.5 440.76 409.14 440.88 408.53 441.1 409.29 441.16 408.54 441.29 408.83 441.32 408.53 441.5 408.91 441.52 408.49 441.83 408.94 441.7 408.44 442.23 409.16 441.99 408.33 442.41 408.84 442.21 408.24 442.55 408.59 442.37 408.13 442.81 408.55 442.55 408.03 443.2 408.64 442.73 407.87 443.37 408.26 442.88 407.69 443.12 407.81 442.96 407.6 443.48 407.84 443.08 407.41 443.56 407.57 443.17 407.25 443.96 407.47 443.24 407.02 443.87 407.12 443.3 406.88 444.42 407.02 443.33 406.63 443.95 406.58 443.36 406.42 444.25 406.32 443.33 406.25 443.8 406.12 443.29 406.07 443.62 405.91 443.3 406 441.75 404.41"/>
          <ellipse class="cls-1" cx="441.23" cy="406.39" rx="2.04" ry="1.89"/>
          <ellipse class="cls-15" cx="442.67" cy="405.05" rx="1.17" ry="1.08"/>
        </g>
        <path class="cls-7" d="M456.26,405.61c-11.63-6.05-20.96-4.92-30.22,2.6-2.48,1.48-1.8,5.23,3.7,2.01,12.03,2.52,21.09.78,26.33-4.35"/>
      </g>
      <path class="cls-6" d="M394.62,401.08l.59-3.56c-11.01-4.24-24.51-6.98-34.82-6.1,12.47,2.28,23.85,5.52,34.23,9.65Z"/>
      <path class="cls-6" d="M422.53,401.28l-.59-3.56c11.01-4.24,24.51-6.98,34.82-6.1-12.47,2.28-23.85,5.52-34.23,9.65Z"/>
      <path class="cls-15" d="M472.22,453.07l-29.74,52.49c5.99-6.09,12.37-12.99,16.64-21.31.42-.82.98-1.56,1.41-2.37,4.88-9.07,8.47-16.47,11.7-28.81Z"/>
      <path class="cls-15" d="M371.43,501.95l23.22,18.42c.93.59,2.03.87,3.13.81,8.39-.44,9.45-.22,18.89.04,1.24.03,2.46-.3,3.5-.97l27.86-21.59c-5.3,8.2-24.55,26.39-33.06,27.42-3.81.9-9.42.93-15.94-.25-7.55-2.49-24.53-17.25-27.6-23.88Z"/>
      <path class="cls-15" d="M348.97,457.56l27.65,51.17c-5.99-6.09-8.34-11-14.55-19.99-.52-.76-.98-1.56-1.41-2.37-4.88-9.07-8.47-16.47-11.7-28.81Z"/>
      <path class="cls-15" d="M355.97,391.56l20.11-35.66c2.88-5.1,8.06-8.48,13.9-9.05l31.16-3.05c8.4-.82,16.58,3.01,21.32,10l21.67,37.68,6.42.23c-9.28-18.52-21.86-42.05-32.83-58.95l-47.04-5.29-19.4,14.7c-9,20.02-19.02,41.69-20.26,49.21l4.97.18Z"/>
      <g>
        <path d="M472.24,405.64c-2.06-3.44-3.29-7.34-3.56-11.29-3.04-44.28-16.07-51.68-21.64-54.83-1.17-.67-2.02-1.15-2.25-1.68-.08-.19-.27-.3-.46-.3-.06,0-.12.01-.18.04-.25.1-.38.38-.28.64,4.51,12.28,7.86,23.73,9.96,34.03.6,2.95,1.58,5.92,2.9,8.82l1.83,4-3.77-6.7c-.09-.16-.26-.25-.44-.25-.05,0-.1,0-.15.02-.23.07-.37.29-.35.52l1.01,10.99-3.09-21.91c-.03-.25-.25-.43-.49-.43,0,0-.01,0-.02,0-.26,0-.46.21-.48.47l-1.34,19.71-.68-16.13c-.12-2.79-.56-5.59-1.33-8.31-2.65-9.47-5.99-18.05-9.92-25.52-1.23-2.35-3.55-3.87-6.21-4.07,0,0-2.05-.16-2.06-.16-.15,0-.29.06-.38.18-.1.12-.14.29-.1.44l1.85,7.58-2.94-6.24c-.08-.18-.26-.29-.45-.29-.04,0-.08,0-.12.01-.23.06-.39.27-.38.51l.07,1.79-.14-1.11c-.02-.13-.08-.25-.18-.33l-2.45-1.96c-.09-.07-.2-.11-.31-.11-.07,0-.15.02-.22.05-.17.08-.28.26-.28.45l-.16,36.63-4.53-34.04c-.02-.17-.13-.32-.29-.39-.06-.03-.13-.04-.2-.04-.1,0-.2.03-.29.09l-2.37,1.66c-.7.31-1.15.99-1.15,1.75l-.22,4.79-.62-4.07c0-.06-.03-.11-.05-.16-.46-.87-1.36-1.41-2.35-1.41l-7.9-.38c-.31,0-.71-.35-.98-.59-.31-.27-.53-.46-.82-.46-.13,0-.32.08-.42.17-.18.19-.2.45-.2.63l-1.63,23.66-1.87-22.76c-.02-.24-.21-.44-.46-.46-.01,0-.03,0-.04,0-.23,0-.43.16-.48.38l-1.09,4.41-1.29-4.86c-.06-.22-.26-.37-.48-.37h0c-.23,0-.43.16-.48.38l-2.4,9.92v-3.1c0-1.41-1.14-2.55-2.55-2.55-.09,0-.19,0-.28.02l-6.45.72c-.54.06-1,.36-1.27.82-1.97,3.42-11.98,21.01-15.01,31.76-.65,2.3-1.1,5.36-1.28,8.64-2.04,4.37-2.69,8.62-3.44,13.53-.42,2.71-.86,5.64-1.61,8.83l4.86-30.72c.04-.24-.11-.48-.34-.56-.05-.02-.1-.02-.15-.02-.19,0-.36.11-.45.28-3.22,6.62-6.9,13.23-10.98,19.71,5.49-11.17,10.25-21.31,12.96-27.28.17-.38.31-.74.44-1.13.95-2.86,2.31-6.63,3.89-11.01,1.72-4.76,3.66-10.15,5.58-15.74.08-.23-.02-.48-.23-.6-.08-.04-.16-.06-.25-.06-.14,0-.29.06-.38.18l-11.28,13.41c-.05.05-.08.12-.1.19l-.54,1.95v-2.58c0-.15-.07-.29-.18-.38l-1.54-1.28c10.15-23.06,26.81-36.81,44.61-36.81,12.07,0,24.33,5.94,36.43,17.65.05.05.11.09.17.11,19.19,7.12,24.99,26.24,28.98,59.03.52,4.27,1.73,8.36,3.61,12.17l11.27,22.9-12.69-21.2Z"/>
        <path d="M404.46,315.47h0c11.93,0,24.07,5.89,36.08,17.51.1.1.22.17.35.22,9.3,3.45,15.71,9.83,20.16,20.07,4.64,10.67,6.82,24.83,8.49,38.55.53,4.32,1.76,8.47,3.66,12.33l5.87,11.93-6.41-10.71c-2.02-3.37-3.22-7.2-3.49-11.06-3.06-44.55-16.26-52.04-21.89-55.23-.96-.55-1.87-1.06-2.02-1.4l-.04-.12c-.15-.4-.53-.66-.94-.66-.11,0-.21.02-.32.05-.51.17-.8.72-.64,1.24.02.07.05.14.07.2,4.5,12.25,7.84,23.67,9.93,33.94.37,1.8.87,3.6,1.5,5.39-.15-.08-.32-.13-.49-.13-.1,0-.2.01-.3.05-.13.04-.25.11-.35.19l-1.43-10.18c-.07-.5-.49-.86-.99-.86-.01,0-.02,0-.04,0-.51.02-.93.42-.96.93l-.72,10.63-.29-7.04c-.12-2.83-.57-5.66-1.34-8.42-2.66-9.5-6.01-18.12-9.95-25.61-1.31-2.5-3.79-4.12-6.61-4.34l-2.02-.15s-.05,0-.08,0c-.29,0-.57.13-.76.35-.21.24-.29.57-.21.88l.68,2.77-.83-1.76c-.17-.36-.52-.57-.9-.57-.08,0-.16,0-.24.03-.31.08-.56.29-.68.57l-1.98-1.58c-.18-.14-.4-.22-.62-.22-.15,0-.29.03-.43.1-.35.17-.57.51-.57.9l-.13,29.32-3.56-26.79c-.05-.35-.27-.64-.59-.78-.13-.06-.27-.08-.4-.08-.2,0-.4.06-.57.18l-2.33,1.63c-.85.39-1.4,1.24-1.4,2.14v.26c-.58-.96-1.61-1.56-2.69-1.56h0l-7.95-.38c-.15-.03-.48-.32-.64-.47-.34-.3-.67-.59-1.15-.59-.29,0-.57.11-.77.32-.32.33-.34.75-.34.94l-1.17,17.05-1.33-16.16c-.04-.49-.43-.88-.92-.91-.03,0-.05,0-.08,0-.46,0-.86.31-.97.76l-.62,2.52-.79-2.97c-.12-.44-.51-.74-.97-.74,0,0,0,0-.01,0-.46,0-.85.32-.96.76l-1.5,6.21c-.33-1.33-1.53-2.32-2.96-2.32-.11,0-.23,0-.34.02l-6.45.72c-.7.08-1.3.47-1.65,1.07-1.98,3.42-12.01,21.05-15.06,31.88-.65,2.31-1.11,5.37-1.29,8.66-.29.63-.55,1.26-.8,1.89l1.59-10.06c.08-.49-.22-.96-.69-1.11-.1-.03-.2-.05-.3-.05-.37,0-.73.21-.9.56-1.49,3.07-3.08,6.13-4.76,9.18,3.18-6.65,5.86-12.38,7.65-16.32.17-.38.32-.76.46-1.18.95-2.85,2.31-6.63,3.89-11,1.72-4.76,3.66-10.15,5.58-15.74.16-.46-.03-.96-.45-1.19-.15-.09-.32-.13-.49-.13-.29,0-.57.12-.77.36l-11.05,13.14c-.04-.24-.16-.46-.35-.61l-1.25-1.04c4.79-10.76,11.14-19.73,18.39-25.96,7.88-6.77,16.5-10.21,25.61-10.21M404.46,314.47c-19.36,0-35.6,15.38-45.22,37.46l1.83,1.52v6.25l1.52-5.49,11.28-13.41c-3.67,10.72-7.48,20.76-9.47,26.75-.13.38-.26.72-.42,1.08-3.52,7.73-9.91,21.23-16.62,34.66,5.89-8.61,11.09-17.49,15.55-26.67l-6.05,38.26c4.57-12.59,3.18-21.1,7.23-29.7.16-2.98.56-6.14,1.27-8.63,3.03-10.75,13.11-28.43,14.97-31.65.19-.33.52-.53.89-.58l6.45-.72c.08,0,.15-.01.23-.01,1.11,0,2.05.91,2.05,2.05v7.29l3.39-13.99,1.79,6.74,1.56-6.31,2.42,29.36,2.08-30.3c0-.21.04-.29.12-.29.28,0,1.02,1.05,1.78,1.05l7.93.39c.8,0,1.53.44,1.91,1.15l1.38,9.11.45-9.91c0-.58.35-1.1.89-1.31l2.41-1.69,5.49,41.29.19-43.94,2.45,1.96,1.59,12.45-.52-13.21,5.05,10.72-3.02-12.39,2.02.15c2.46.19,4.66,1.62,5.81,3.8,3.89,7.39,7.19,15.84,9.88,25.42.75,2.67,1.19,5.42,1.31,8.19l1.06,25.22,1.96-28.79,5.97,42.35-2.9-31.55,9.6,17.07-6.77-14.82c-1.27-2.79-2.25-5.7-2.87-8.71-2.19-10.77-5.6-22.19-9.98-34.11-.02-.04-.03-.09-.05-.13.02.04.03.09.05.13,1.57,3.65,20.13,2.19,23.85,56.35.28,4.07,1.54,8.01,3.63,11.51l18.97,31.7-16.68-33.87c-1.86-3.77-3.06-7.84-3.56-12.01-3.86-31.75-9.22-51.98-29.3-59.44-12.87-12.45-25.37-17.79-36.78-17.79h0Z"/>
      </g>
    </g>
    <rect class="cls-13" x="454.49" y="520.46" width="2.21" height="3.14" transform="translate(-228.34 411.05) rotate(-39.67)"/>
    <rect class="cls-13" x="451.3" y="519.54" width="2.07" height="1.75" transform="translate(-82.4 85.1) rotate(-9.86)"/>
    <rect class="cls-13" x="449.97" y="519.68" width="5.92" height="3.71" rx="1.85" ry="1.85" transform="translate(-12.8 1031.67) rotate(-96.63)"/>
    <path class="cls-15" d="M452.94,517.39c1.55-1.92,1.92-4.55,1.05-6.86h0c-.72-1.36-1.21-2.83-1.46-4.35l-2.87-34.67h-1.15l.57,35.38c-.03,1.03-.21,2.05-.63,2.99-.18.41-.3.79-.4,1.15-.36,1.33-.34,2.74.07,4.06,1.3,4.18,2.87,4.74,4.82,2.31Z"/>
  </g>
  <path d="M306.1,379.27l-16.72,24.61c1.74-42.55,67.83-119.14,117.01-94.72,29.56-12.4,65.58-4.73,96.76,34.43l-5.19-3.92c12.83,17.1,20.84,36.16,22.66,57.71-2.67-2.93-5.75-4.53-9.29-4.64,8.94,19.68,17.56,43,26,68.26-6.36-8.54-12.15-15.27-16.72-18.11,3.75,13.67,22.42,43.52,22.75,55.25l-12.07-13c1.41,11.66,3.13,23.05,6.5,32.97h-5.11c9.69,25.07,34.82,54.89,34.82,66.86l-22.75-23.22,4.64,12.54-10.22-11.14,9.29,31.57c-4.13.33-4.48,3.97-2.48,9.67-9.82-19.79-21.25-32.53-33.72-40.73,0,0,15.59,25.94-5.3,72.38,11.58-41.68,7.75-63.94-4.36-75.79,8.88,56.63-21.33,87.87-12.13,154.6-2.74-22.93-10.28-48.62-3.96-68.77l2.26-11.18c13.34-48.78,5.59-48.59,5.87-67.07-1.89,23.4-8.9,38.11,1.52,93.97l-7.77,24.25c6.33-19.75-1.88-39.97-6.25-65.55l-5.68,59.49c4.77,10.25,7.47,20.1,5.87,29.37l-3.79,21.22.19-21.41c1.28-10.65-1.48-22.82-4.93-35.24-1.56-11.02,4.85-33.38,3.03-63.28l-14.21,62.33c-6.33,13.11-7.56,29.61-7.2,47.18-4.15-15.65-5.37-32.01,3.41-50.78l3.03-17.05-9.66,21.79c.45-11.22,4.26-23.7,10.61-37.13l5.87-29.18-5.87,7.39c15.43-44.83,23.39-58.99-8.15-90.18l-92.57-5.14c-2.77-.81-11.15,5.53-18.99,11.2-5.47,3.99-4.09,21.01,4.12,51.01-3.4,33.42-6.47,66.18-2.75,85.33-1.43,20.29-2.61,39.9-.69,51.24-5.43-8.34-5.23-22.99-2.29-40.72-2.92-10.34-3.46-27.43-3.66-45.52l-2.75,35.23c-3.72-13.6-2.21-38.37-.69-68.4l-4.58,19.44-2.06-20.36,4.12,43.69c-2.33,30.08-2.1,56.31,3.89,73.89-7.28-7.94-11.2-29.67-10.98-68.4-.32,7.67-2.6,13.2-4.12,20.59,2.78-10.78,2.01-23.8-.23-37.74-6.6,20.2-5.25,38.88,1.6,56.5-11.12-14.74-9.49-58.49-7.55-102.94-2.32,19.11-4.7,40.23-6.63,46.44-1.44-6.52-.57-14.74,2.06-24.25,2.09-7.54,1.22-21.36.23-35.46-12.44,48.67-8.91,58.36-3.08,76.54l6.05,29.6c-18.75-37.57-18.53-67.45-6.49-112.75l-11.9,65.2-4.03,27.43.46-46.9c-.15-15.07,4.73-31.47,10.29-48.04l-7.55,20.13.69-10.75c-9.49,12.42-14.17,29.11-13.5,50.56-5.13-18.17-2.84-36.24,7.32-54.22l-21.5,30.65c4.51-23.44-2.94-27.65-18.99,1.37l10.29-46.44-7.78,21.27,2.97-26.31-2.75,8.01,42.01-111.39-21.67,34.85,35.07-100.18Z"/>
</svg>